G04 #@! TF.GenerationSoftware,KiCad,Pcbnew,6.0.5+dfsg-1~bpo11+1*
G04 #@! TF.ProjectId,_autosave-esp8266_pzem16_ac,5f617574-6f73-4617-9665-2d6573703832,rev?*
G04 #@! TF.SameCoordinates,Original*
G04 #@! TF.FileFunction,Legend,Bot*
G04 #@! TF.FilePolarity,Positive*
%FSLAX46Y46*%
G04 Gerber Fmt 4.6, Leading zero omitted, Abs format (unit mm)*
%MOMM*%
%LPD*%
G01*
G04 APERTURE LIST*
%ADD10C,0.150000*%
%ADD11C,0.120000*%
%ADD12R,1.524000X2.286000*%
%ADD13R,2.000000X1.500000*%
%ADD14R,2.000000X3.800000*%
G04 APERTURE END LIST*
D10*
X81138071Y-53998000D02*
X80709500Y-53998000D01*
X81223785Y-54255142D02*
X80923785Y-53355142D01*
X80623785Y-54255142D01*
X72368785Y-53271000D02*
X72454500Y-53228142D01*
X72583071Y-53228142D01*
X72711642Y-53271000D01*
X72797357Y-53356714D01*
X72840214Y-53442428D01*
X72883071Y-53613857D01*
X72883071Y-53742428D01*
X72840214Y-53913857D01*
X72797357Y-53999571D01*
X72711642Y-54085285D01*
X72583071Y-54128142D01*
X72497357Y-54128142D01*
X72368785Y-54085285D01*
X72325928Y-54042428D01*
X72325928Y-53742428D01*
X72497357Y-53742428D01*
X71940214Y-54128142D02*
X71940214Y-53228142D01*
X71425928Y-54128142D01*
X71425928Y-53228142D01*
X70997357Y-54128142D02*
X70997357Y-53228142D01*
X70783071Y-53228142D01*
X70654500Y-53271000D01*
X70568785Y-53356714D01*
X70525928Y-53442428D01*
X70483071Y-53613857D01*
X70483071Y-53742428D01*
X70525928Y-53913857D01*
X70568785Y-53999571D01*
X70654500Y-54085285D01*
X70783071Y-54128142D01*
X70997357Y-54128142D01*
X77999642Y-53228142D02*
X78428214Y-53228142D01*
X78471071Y-53656714D01*
X78428214Y-53613857D01*
X78342500Y-53571000D01*
X78128214Y-53571000D01*
X78042500Y-53613857D01*
X77999642Y-53656714D01*
X77956785Y-53742428D01*
X77956785Y-53956714D01*
X77999642Y-54042428D01*
X78042500Y-54085285D01*
X78128214Y-54128142D01*
X78342500Y-54128142D01*
X78428214Y-54085285D01*
X78471071Y-54042428D01*
X77699642Y-53228142D02*
X77399642Y-54128142D01*
X77099642Y-53228142D01*
X61770214Y-40570785D02*
X61770214Y-40870785D01*
X62241642Y-40999357D02*
X62241642Y-40570785D01*
X61341642Y-40570785D01*
X61341642Y-40999357D01*
X62198785Y-41342214D02*
X62241642Y-41470785D01*
X62241642Y-41685071D01*
X62198785Y-41770785D01*
X62155928Y-41813642D01*
X62070214Y-41856500D01*
X61984500Y-41856500D01*
X61898785Y-41813642D01*
X61855928Y-41770785D01*
X61813071Y-41685071D01*
X61770214Y-41513642D01*
X61727357Y-41427928D01*
X61684500Y-41385071D01*
X61598785Y-41342214D01*
X61513071Y-41342214D01*
X61427357Y-41385071D01*
X61384500Y-41427928D01*
X61341642Y-41513642D01*
X61341642Y-41727928D01*
X61384500Y-41856500D01*
X62241642Y-42242214D02*
X61341642Y-42242214D01*
X61341642Y-42585071D01*
X61384500Y-42670785D01*
X61427357Y-42713642D01*
X61513071Y-42756500D01*
X61641642Y-42756500D01*
X61727357Y-42713642D01*
X61770214Y-42670785D01*
X61813071Y-42585071D01*
X61813071Y-42242214D01*
X61898785Y-43142214D02*
X61898785Y-43827928D01*
X62241642Y-44727928D02*
X62241642Y-44213642D01*
X62241642Y-44470785D02*
X61341642Y-44470785D01*
X61470214Y-44385071D01*
X61555928Y-44299357D01*
X61598785Y-44213642D01*
X61427357Y-45070785D02*
X61384500Y-45113642D01*
X61341642Y-45199357D01*
X61341642Y-45413642D01*
X61384500Y-45499357D01*
X61427357Y-45542214D01*
X61513071Y-45585071D01*
X61598785Y-45585071D01*
X61727357Y-45542214D01*
X62241642Y-45027928D01*
X62241642Y-45585071D01*
X61770214Y-46270785D02*
X61770214Y-45970785D01*
X62241642Y-45970785D02*
X61341642Y-45970785D01*
X61341642Y-46399357D01*
X63690642Y-41085071D02*
X63262071Y-40785071D01*
X63690642Y-40570785D02*
X62790642Y-40570785D01*
X62790642Y-40913642D01*
X62833500Y-40999357D01*
X62876357Y-41042214D01*
X62962071Y-41085071D01*
X63090642Y-41085071D01*
X63176357Y-41042214D01*
X63219214Y-40999357D01*
X63262071Y-40913642D01*
X63262071Y-40570785D01*
X63647785Y-41427928D02*
X63690642Y-41556500D01*
X63690642Y-41770785D01*
X63647785Y-41856500D01*
X63604928Y-41899357D01*
X63519214Y-41942214D01*
X63433500Y-41942214D01*
X63347785Y-41899357D01*
X63304928Y-41856500D01*
X63262071Y-41770785D01*
X63219214Y-41599357D01*
X63176357Y-41513642D01*
X63133500Y-41470785D01*
X63047785Y-41427928D01*
X62962071Y-41427928D01*
X62876357Y-41470785D01*
X62833500Y-41513642D01*
X62790642Y-41599357D01*
X62790642Y-41813642D01*
X62833500Y-41942214D01*
X63090642Y-42713642D02*
X63690642Y-42713642D01*
X62747785Y-42499357D02*
X63390642Y-42285071D01*
X63390642Y-42842214D01*
X63176357Y-43313642D02*
X63133500Y-43227928D01*
X63090642Y-43185071D01*
X63004928Y-43142214D01*
X62962071Y-43142214D01*
X62876357Y-43185071D01*
X62833500Y-43227928D01*
X62790642Y-43313642D01*
X62790642Y-43485071D01*
X62833500Y-43570785D01*
X62876357Y-43613642D01*
X62962071Y-43656500D01*
X63004928Y-43656500D01*
X63090642Y-43613642D01*
X63133500Y-43570785D01*
X63176357Y-43485071D01*
X63176357Y-43313642D01*
X63219214Y-43227928D01*
X63262071Y-43185071D01*
X63347785Y-43142214D01*
X63519214Y-43142214D01*
X63604928Y-43185071D01*
X63647785Y-43227928D01*
X63690642Y-43313642D01*
X63690642Y-43485071D01*
X63647785Y-43570785D01*
X63604928Y-43613642D01*
X63519214Y-43656500D01*
X63347785Y-43656500D01*
X63262071Y-43613642D01*
X63219214Y-43570785D01*
X63176357Y-43485071D01*
X62790642Y-44470785D02*
X62790642Y-44042214D01*
X63219214Y-43999357D01*
X63176357Y-44042214D01*
X63133500Y-44127928D01*
X63133500Y-44342214D01*
X63176357Y-44427928D01*
X63219214Y-44470785D01*
X63304928Y-44513642D01*
X63519214Y-44513642D01*
X63604928Y-44470785D01*
X63647785Y-44427928D01*
X63690642Y-44342214D01*
X63690642Y-44127928D01*
X63647785Y-44042214D01*
X63604928Y-43999357D01*
X63690642Y-45585071D02*
X63090642Y-45585071D01*
X62790642Y-45585071D02*
X62833500Y-45542214D01*
X62876357Y-45585071D01*
X62833500Y-45627928D01*
X62790642Y-45585071D01*
X62876357Y-45585071D01*
X63090642Y-46013642D02*
X63690642Y-46013642D01*
X63176357Y-46013642D02*
X63133500Y-46056500D01*
X63090642Y-46142214D01*
X63090642Y-46270785D01*
X63133500Y-46356500D01*
X63219214Y-46399357D01*
X63690642Y-46399357D01*
X63090642Y-46699357D02*
X63090642Y-47042214D01*
X62790642Y-46827928D02*
X63562071Y-46827928D01*
X63647785Y-46870785D01*
X63690642Y-46956500D01*
X63690642Y-47042214D01*
X63647785Y-47685071D02*
X63690642Y-47599357D01*
X63690642Y-47427928D01*
X63647785Y-47342214D01*
X63562071Y-47299357D01*
X63219214Y-47299357D01*
X63133500Y-47342214D01*
X63090642Y-47427928D01*
X63090642Y-47599357D01*
X63133500Y-47685071D01*
X63219214Y-47727928D01*
X63304928Y-47727928D01*
X63390642Y-47299357D01*
X63690642Y-48113642D02*
X63090642Y-48113642D01*
X63262071Y-48113642D02*
X63176357Y-48156500D01*
X63133500Y-48199357D01*
X63090642Y-48285071D01*
X63090642Y-48370785D01*
X63090642Y-48542214D02*
X63090642Y-48885071D01*
X63690642Y-48670785D02*
X62919214Y-48670785D01*
X62833500Y-48713642D01*
X62790642Y-48799357D01*
X62790642Y-48885071D01*
X63690642Y-49570785D02*
X63219214Y-49570785D01*
X63133500Y-49527928D01*
X63090642Y-49442214D01*
X63090642Y-49270785D01*
X63133500Y-49185071D01*
X63647785Y-49570785D02*
X63690642Y-49485071D01*
X63690642Y-49270785D01*
X63647785Y-49185071D01*
X63562071Y-49142214D01*
X63476357Y-49142214D01*
X63390642Y-49185071D01*
X63347785Y-49270785D01*
X63347785Y-49485071D01*
X63304928Y-49570785D01*
X63647785Y-50385071D02*
X63690642Y-50299357D01*
X63690642Y-50127928D01*
X63647785Y-50042214D01*
X63604928Y-49999357D01*
X63519214Y-49956500D01*
X63262071Y-49956500D01*
X63176357Y-49999357D01*
X63133500Y-50042214D01*
X63090642Y-50127928D01*
X63090642Y-50299357D01*
X63133500Y-50385071D01*
X63647785Y-51113642D02*
X63690642Y-51027928D01*
X63690642Y-50856500D01*
X63647785Y-50770785D01*
X63562071Y-50727928D01*
X63219214Y-50727928D01*
X63133500Y-50770785D01*
X63090642Y-50856500D01*
X63090642Y-51027928D01*
X63133500Y-51113642D01*
X63219214Y-51156500D01*
X63304928Y-51156500D01*
X63390642Y-50727928D01*
X65688642Y-40442214D02*
X66588642Y-40742214D01*
X65688642Y-41042214D01*
X66588642Y-41813642D02*
X66588642Y-41299357D01*
X66588642Y-41556500D02*
X65688642Y-41556500D01*
X65817214Y-41470785D01*
X65902928Y-41385071D01*
X65945785Y-41299357D01*
X66502928Y-42199357D02*
X66545785Y-42242214D01*
X66588642Y-42199357D01*
X66545785Y-42156500D01*
X66502928Y-42199357D01*
X66588642Y-42199357D01*
X65688642Y-42799357D02*
X65688642Y-42885071D01*
X65731500Y-42970785D01*
X65774357Y-43013642D01*
X65860071Y-43056500D01*
X66031500Y-43099357D01*
X66245785Y-43099357D01*
X66417214Y-43056500D01*
X66502928Y-43013642D01*
X66545785Y-42970785D01*
X66588642Y-42885071D01*
X66588642Y-42799357D01*
X66545785Y-42713642D01*
X66502928Y-42670785D01*
X66417214Y-42627928D01*
X66245785Y-42585071D01*
X66031500Y-42585071D01*
X65860071Y-42627928D01*
X65774357Y-42670785D01*
X65731500Y-42713642D01*
X65688642Y-42799357D01*
X65774357Y-44127928D02*
X65731500Y-44170785D01*
X65688642Y-44256500D01*
X65688642Y-44470785D01*
X65731500Y-44556500D01*
X65774357Y-44599357D01*
X65860071Y-44642214D01*
X65945785Y-44642214D01*
X66074357Y-44599357D01*
X66588642Y-44085071D01*
X66588642Y-44642214D01*
X65688642Y-45199357D02*
X65688642Y-45285071D01*
X65731500Y-45370785D01*
X65774357Y-45413642D01*
X65860071Y-45456500D01*
X66031500Y-45499357D01*
X66245785Y-45499357D01*
X66417214Y-45456500D01*
X66502928Y-45413642D01*
X66545785Y-45370785D01*
X66588642Y-45285071D01*
X66588642Y-45199357D01*
X66545785Y-45113642D01*
X66502928Y-45070785D01*
X66417214Y-45027928D01*
X66245785Y-44985071D01*
X66031500Y-44985071D01*
X65860071Y-45027928D01*
X65774357Y-45070785D01*
X65731500Y-45113642D01*
X65688642Y-45199357D01*
X65774357Y-45842214D02*
X65731500Y-45885071D01*
X65688642Y-45970785D01*
X65688642Y-46185071D01*
X65731500Y-46270785D01*
X65774357Y-46313642D01*
X65860071Y-46356500D01*
X65945785Y-46356500D01*
X66074357Y-46313642D01*
X66588642Y-45799357D01*
X66588642Y-46356500D01*
X65688642Y-46656500D02*
X65688642Y-47213642D01*
X66031500Y-46913642D01*
X66031500Y-47042214D01*
X66074357Y-47127928D01*
X66117214Y-47170785D01*
X66202928Y-47213642D01*
X66417214Y-47213642D01*
X66502928Y-47170785D01*
X66545785Y-47127928D01*
X66588642Y-47042214D01*
X66588642Y-46785071D01*
X66545785Y-46699357D01*
X66502928Y-46656500D01*
X85621214Y-53783714D02*
X85492642Y-53826571D01*
X85449785Y-53869428D01*
X85406928Y-53955142D01*
X85406928Y-54083714D01*
X85449785Y-54169428D01*
X85492642Y-54212285D01*
X85578357Y-54255142D01*
X85921214Y-54255142D01*
X85921214Y-53355142D01*
X85621214Y-53355142D01*
X85535500Y-53398000D01*
X85492642Y-53440857D01*
X85449785Y-53526571D01*
X85449785Y-53612285D01*
X85492642Y-53698000D01*
X85535500Y-53740857D01*
X85621214Y-53783714D01*
X85921214Y-53783714D01*
X87352142Y-37790523D02*
X87399761Y-37742904D01*
X87447380Y-37600047D01*
X87447380Y-37504809D01*
X87399761Y-37361952D01*
X87304523Y-37266714D01*
X87209285Y-37219095D01*
X87018809Y-37171476D01*
X86875952Y-37171476D01*
X86685476Y-37219095D01*
X86590238Y-37266714D01*
X86495000Y-37361952D01*
X86447380Y-37504809D01*
X86447380Y-37600047D01*
X86495000Y-37742904D01*
X86542619Y-37790523D01*
X86447380Y-38219095D02*
X87256904Y-38219095D01*
X87352142Y-38266714D01*
X87399761Y-38314333D01*
X87447380Y-38409571D01*
X87447380Y-38600047D01*
X87399761Y-38695285D01*
X87352142Y-38742904D01*
X87256904Y-38790523D01*
X86447380Y-38790523D01*
X87447380Y-39790523D02*
X87447380Y-39219095D01*
X87447380Y-39504809D02*
X86447380Y-39504809D01*
X86590238Y-39409571D01*
X86685476Y-39314333D01*
X86733095Y-39219095D01*
X80732119Y-63071333D02*
X80017833Y-63071333D01*
X79874976Y-63118952D01*
X79779738Y-63214190D01*
X79732119Y-63357047D01*
X79732119Y-63452285D01*
X80636880Y-62642761D02*
X80684500Y-62595142D01*
X80732119Y-62499904D01*
X80732119Y-62261809D01*
X80684500Y-62166571D01*
X80636880Y-62118952D01*
X80541642Y-62071333D01*
X80446404Y-62071333D01*
X80303547Y-62118952D01*
X79732119Y-62690380D01*
X79732119Y-62071333D01*
X66619380Y-59269333D02*
X66143190Y-58936000D01*
X66619380Y-58697904D02*
X65619380Y-58697904D01*
X65619380Y-59078857D01*
X65667000Y-59174095D01*
X65714619Y-59221714D01*
X65809857Y-59269333D01*
X65952714Y-59269333D01*
X66047952Y-59221714D01*
X66095571Y-59174095D01*
X66143190Y-59078857D01*
X66143190Y-58697904D01*
X65619380Y-60126476D02*
X65619380Y-59936000D01*
X65667000Y-59840761D01*
X65714619Y-59793142D01*
X65857476Y-59697904D01*
X66047952Y-59650285D01*
X66428904Y-59650285D01*
X66524142Y-59697904D01*
X66571761Y-59745523D01*
X66619380Y-59840761D01*
X66619380Y-60031238D01*
X66571761Y-60126476D01*
X66524142Y-60174095D01*
X66428904Y-60221714D01*
X66190809Y-60221714D01*
X66095571Y-60174095D01*
X66047952Y-60126476D01*
X66000333Y-60031238D01*
X66000333Y-59840761D01*
X66047952Y-59745523D01*
X66095571Y-59697904D01*
X66190809Y-59650285D01*
X76557404Y-63587380D02*
X76557404Y-64396904D01*
X76509785Y-64492142D01*
X76462166Y-64539761D01*
X76366928Y-64587380D01*
X76176452Y-64587380D01*
X76081214Y-64539761D01*
X76033595Y-64492142D01*
X75985976Y-64396904D01*
X75985976Y-63587380D01*
X75557404Y-63682619D02*
X75509785Y-63635000D01*
X75414547Y-63587380D01*
X75176452Y-63587380D01*
X75081214Y-63635000D01*
X75033595Y-63682619D01*
X74985976Y-63777857D01*
X74985976Y-63873095D01*
X75033595Y-64015952D01*
X75605023Y-64587380D01*
X74985976Y-64587380D01*
X89019119Y-63071333D02*
X88304833Y-63071333D01*
X88161976Y-63118952D01*
X88066738Y-63214190D01*
X88019119Y-63357047D01*
X88019119Y-63452285D01*
X88019119Y-62071333D02*
X88019119Y-62642761D01*
X88019119Y-62357047D02*
X89019119Y-62357047D01*
X88876261Y-62452285D01*
X88781023Y-62547523D01*
X88733404Y-62642761D01*
X66500333Y-56221380D02*
X66500333Y-56935666D01*
X66547952Y-57078523D01*
X66643190Y-57173761D01*
X66786047Y-57221380D01*
X66881285Y-57221380D01*
X66119380Y-56221380D02*
X65500333Y-56221380D01*
X65833666Y-56602333D01*
X65690809Y-56602333D01*
X65595571Y-56649952D01*
X65547952Y-56697571D01*
X65500333Y-56792809D01*
X65500333Y-57030904D01*
X65547952Y-57126142D01*
X65595571Y-57173761D01*
X65690809Y-57221380D01*
X65976523Y-57221380D01*
X66071761Y-57173761D01*
X66119380Y-57126142D01*
X63833642Y-60539333D02*
X63881261Y-60491714D01*
X63928880Y-60348857D01*
X63928880Y-60253619D01*
X63881261Y-60110761D01*
X63786023Y-60015523D01*
X63690785Y-59967904D01*
X63500309Y-59920285D01*
X63357452Y-59920285D01*
X63166976Y-59967904D01*
X63071738Y-60015523D01*
X62976500Y-60110761D01*
X62928880Y-60253619D01*
X62928880Y-60348857D01*
X62976500Y-60491714D01*
X63024119Y-60539333D01*
X63928880Y-61491714D02*
X63928880Y-60920285D01*
X63928880Y-61206000D02*
X62928880Y-61206000D01*
X63071738Y-61110761D01*
X63166976Y-61015523D01*
X63214595Y-60920285D01*
X65357642Y-61682333D02*
X65405261Y-61634714D01*
X65452880Y-61491857D01*
X65452880Y-61396619D01*
X65405261Y-61253761D01*
X65310023Y-61158523D01*
X65214785Y-61110904D01*
X65024309Y-61063285D01*
X64881452Y-61063285D01*
X64690976Y-61110904D01*
X64595738Y-61158523D01*
X64500500Y-61253761D01*
X64452880Y-61396619D01*
X64452880Y-61491857D01*
X64500500Y-61634714D01*
X64548119Y-61682333D01*
X64548119Y-62063285D02*
X64500500Y-62110904D01*
X64452880Y-62206142D01*
X64452880Y-62444238D01*
X64500500Y-62539476D01*
X64548119Y-62587095D01*
X64643357Y-62634714D01*
X64738595Y-62634714D01*
X64881452Y-62587095D01*
X65452880Y-62015666D01*
X65452880Y-62634714D01*
D11*
X67945000Y-44577000D02*
X67945000Y-32131000D01*
X67945000Y-32131000D02*
X85979000Y-32131000D01*
X85979000Y-32131000D02*
X85979000Y-44323000D01*
G36*
X64565074Y-32932705D02*
G01*
X64796912Y-33358667D01*
X65108667Y-33359220D01*
X66675000Y-33361997D01*
X67111980Y-34143498D01*
X67246198Y-34390961D01*
X67399419Y-34696231D01*
X67501503Y-34928836D01*
X67535314Y-35052000D01*
X67511285Y-35127183D01*
X67419355Y-35333728D01*
X67275716Y-35624241D01*
X67098334Y-35961333D01*
X66675000Y-36743665D01*
X66230500Y-36744499D01*
X66058556Y-36749798D01*
X65862803Y-36773214D01*
X65787020Y-36808834D01*
X65798367Y-36848662D01*
X65872108Y-37007571D01*
X65991569Y-37228278D01*
X66195098Y-37584222D01*
X65969382Y-38010732D01*
X65743667Y-38437242D01*
X64761692Y-38437955D01*
X63779718Y-38438667D01*
X63625156Y-38095910D01*
X63581728Y-38003559D01*
X63476030Y-37808204D01*
X63401651Y-37710544D01*
X63362901Y-37722184D01*
X63263767Y-37842526D01*
X63145483Y-38053301D01*
X62958258Y-38438667D01*
X62445962Y-38436846D01*
X61933667Y-38435025D01*
X61243276Y-37168877D01*
X60643003Y-36068000D01*
X62822667Y-36068000D01*
X65108667Y-36068000D01*
X65108667Y-35538159D01*
X64325500Y-35590020D01*
X64051861Y-35606529D01*
X63801618Y-35612120D01*
X63707457Y-35591083D01*
X63770484Y-35536588D01*
X63991806Y-35441806D01*
X64372532Y-35299907D01*
X64410484Y-35285899D01*
X64697025Y-35157175D01*
X64824032Y-35038937D01*
X64789514Y-34922353D01*
X64591479Y-34798591D01*
X64227934Y-34658821D01*
X64197211Y-34648411D01*
X63909329Y-34545843D01*
X63692970Y-34460078D01*
X63592934Y-34408756D01*
X63605700Y-34397326D01*
X63741428Y-34389011D01*
X63992666Y-34395533D01*
X64325500Y-34416533D01*
X65108667Y-34477310D01*
X65108667Y-33951334D01*
X62822667Y-33951334D01*
X62822667Y-34233013D01*
X62828379Y-34364003D01*
X62867046Y-34464147D01*
X62970523Y-34545670D01*
X63170658Y-34632918D01*
X63499298Y-34750234D01*
X63623550Y-34794718D01*
X63898977Y-34903863D01*
X64082492Y-34992481D01*
X64139527Y-35044675D01*
X64130357Y-35053326D01*
X64004519Y-35114012D01*
X63768140Y-35203022D01*
X63462896Y-35304360D01*
X63201795Y-35387814D01*
X62986071Y-35469781D01*
X62873133Y-35546874D01*
X62829744Y-35644127D01*
X62822667Y-35786573D01*
X62822667Y-36068000D01*
X60643003Y-36068000D01*
X60552885Y-35902728D01*
X60777609Y-35478076D01*
X61002334Y-35053425D01*
X61468000Y-35051492D01*
X61933667Y-35049560D01*
X62404661Y-34195704D01*
X61948311Y-33357238D01*
X62389503Y-32554334D01*
X63361370Y-32530538D01*
X64333237Y-32506743D01*
X64565074Y-32932705D01*
G37*
X61899436Y-54329000D02*
X62353564Y-54329000D01*
X61899436Y-52859000D02*
X62353564Y-52859000D01*
X73207000Y-45245000D02*
X76967000Y-45245000D01*
X76967000Y-45245000D02*
X76967000Y-46505000D01*
X76967000Y-52065000D02*
X76967000Y-50805000D01*
X70957000Y-52065000D02*
X76967000Y-52065000D01*
X64316000Y-52634000D02*
X67176000Y-52634000D01*
X67176000Y-54554000D02*
X64316000Y-54554000D01*
X64316000Y-54554000D02*
X64316000Y-52634000D01*
X70306000Y-47011252D02*
X70306000Y-46488748D01*
X68836000Y-47011252D02*
X68836000Y-46488748D01*
X68836000Y-50105748D02*
X68836000Y-50628252D01*
X70306000Y-50105748D02*
X70306000Y-50628252D01*
%LPC*%
D12*
X69215000Y-43053000D03*
X71755000Y-43053000D03*
X74295000Y-43053000D03*
X76835000Y-43053000D03*
X79375000Y-43053000D03*
X81915000Y-43053000D03*
X84455000Y-43053000D03*
G36*
G01*
X76422000Y-54991000D02*
X75660000Y-54991000D01*
G75*
G02*
X75279000Y-54610000I0J381000D01*
G01*
X75279000Y-53086000D01*
G75*
G02*
X75660000Y-52705000I381000J0D01*
G01*
X76422000Y-52705000D01*
G75*
G02*
X76803000Y-53086000I0J-381000D01*
G01*
X76803000Y-54610000D01*
G75*
G02*
X76422000Y-54991000I-381000J0D01*
G01*
G37*
G36*
G01*
X74422000Y-54991000D02*
X73660000Y-54991000D01*
G75*
G02*
X73279000Y-54610000I0J381000D01*
G01*
X73279000Y-53086000D01*
G75*
G02*
X73660000Y-52705000I381000J0D01*
G01*
X74422000Y-52705000D01*
G75*
G02*
X74803000Y-53086000I0J-381000D01*
G01*
X74803000Y-54610000D01*
G75*
G02*
X74422000Y-54991000I-381000J0D01*
G01*
G37*
G36*
G01*
X60701500Y-54044000D02*
X60701500Y-53144000D01*
G75*
G02*
X60951500Y-52894000I250000J0D01*
G01*
X61476500Y-52894000D01*
G75*
G02*
X61726500Y-53144000I0J-250000D01*
G01*
X61726500Y-54044000D01*
G75*
G02*
X61476500Y-54294000I-250000J0D01*
G01*
X60951500Y-54294000D01*
G75*
G02*
X60701500Y-54044000I0J250000D01*
G01*
G37*
G36*
G01*
X62526500Y-54044000D02*
X62526500Y-53144000D01*
G75*
G02*
X62776500Y-52894000I250000J0D01*
G01*
X63301500Y-52894000D01*
G75*
G02*
X63551500Y-53144000I0J-250000D01*
G01*
X63551500Y-54044000D01*
G75*
G02*
X63301500Y-54294000I-250000J0D01*
G01*
X62776500Y-54294000D01*
G75*
G02*
X62526500Y-54044000I0J250000D01*
G01*
G37*
D13*
X71907000Y-50955000D03*
X71907000Y-48655000D03*
D14*
X78207000Y-48655000D03*
D13*
X71907000Y-46355000D03*
G36*
G01*
X84709000Y-54991000D02*
X83947000Y-54991000D01*
G75*
G02*
X83566000Y-54610000I0J381000D01*
G01*
X83566000Y-53086000D01*
G75*
G02*
X83947000Y-52705000I381000J0D01*
G01*
X84709000Y-52705000D01*
G75*
G02*
X85090000Y-53086000I0J-381000D01*
G01*
X85090000Y-54610000D01*
G75*
G02*
X84709000Y-54991000I-381000J0D01*
G01*
G37*
G36*
G01*
X82709000Y-54991000D02*
X81947000Y-54991000D01*
G75*
G02*
X81566000Y-54610000I0J381000D01*
G01*
X81566000Y-53086000D01*
G75*
G02*
X81947000Y-52705000I381000J0D01*
G01*
X82709000Y-52705000D01*
G75*
G02*
X83090000Y-53086000I0J-381000D01*
G01*
X83090000Y-54610000D01*
G75*
G02*
X82709000Y-54991000I-381000J0D01*
G01*
G37*
G36*
G01*
X64576000Y-54044000D02*
X64576000Y-53144000D01*
G75*
G02*
X64826000Y-52894000I250000J0D01*
G01*
X65476000Y-52894000D01*
G75*
G02*
X65726000Y-53144000I0J-250000D01*
G01*
X65726000Y-54044000D01*
G75*
G02*
X65476000Y-54294000I-250000J0D01*
G01*
X64826000Y-54294000D01*
G75*
G02*
X64576000Y-54044000I0J250000D01*
G01*
G37*
G36*
G01*
X66626000Y-54044000D02*
X66626000Y-53144000D01*
G75*
G02*
X66876000Y-52894000I250000J0D01*
G01*
X67526000Y-52894000D01*
G75*
G02*
X67776000Y-53144000I0J-250000D01*
G01*
X67776000Y-54044000D01*
G75*
G02*
X67526000Y-54294000I-250000J0D01*
G01*
X66876000Y-54294000D01*
G75*
G02*
X66626000Y-54044000I0J250000D01*
G01*
G37*
G36*
G01*
X70046000Y-48200000D02*
X69096000Y-48200000D01*
G75*
G02*
X68846000Y-47950000I0J250000D01*
G01*
X68846000Y-47450000D01*
G75*
G02*
X69096000Y-47200000I250000J0D01*
G01*
X70046000Y-47200000D01*
G75*
G02*
X70296000Y-47450000I0J-250000D01*
G01*
X70296000Y-47950000D01*
G75*
G02*
X70046000Y-48200000I-250000J0D01*
G01*
G37*
G36*
G01*
X70046000Y-46300000D02*
X69096000Y-46300000D01*
G75*
G02*
X68846000Y-46050000I0J250000D01*
G01*
X68846000Y-45550000D01*
G75*
G02*
X69096000Y-45300000I250000J0D01*
G01*
X70046000Y-45300000D01*
G75*
G02*
X70296000Y-45550000I0J-250000D01*
G01*
X70296000Y-46050000D01*
G75*
G02*
X70046000Y-46300000I-250000J0D01*
G01*
G37*
G36*
G01*
X69096000Y-48917000D02*
X70046000Y-48917000D01*
G75*
G02*
X70296000Y-49167000I0J-250000D01*
G01*
X70296000Y-49667000D01*
G75*
G02*
X70046000Y-49917000I-250000J0D01*
G01*
X69096000Y-49917000D01*
G75*
G02*
X68846000Y-49667000I0J250000D01*
G01*
X68846000Y-49167000D01*
G75*
G02*
X69096000Y-48917000I250000J0D01*
G01*
G37*
G36*
G01*
X69096000Y-50817000D02*
X70046000Y-50817000D01*
G75*
G02*
X70296000Y-51067000I0J-250000D01*
G01*
X70296000Y-51567000D01*
G75*
G02*
X70046000Y-51817000I-250000J0D01*
G01*
X69096000Y-51817000D01*
G75*
G02*
X68846000Y-51567000I0J250000D01*
G01*
X68846000Y-51067000D01*
G75*
G02*
X69096000Y-50817000I250000J0D01*
G01*
G37*
M02*
