%FSLAX45Y45*%
G04 Gerber Fmt 4.5, Leading zero omitted, Abs format (unit mm)*
%MOMM*%
%LPD*%
G01*
G04 APERTURE LIST*
%TA.AperFunction,Profile*%
%ADD10C,0.100000*%
%TD*%
%ADD11C,0.200000*%
G04 APERTURE END LIST*
D10*
X8623300Y-3149600D02*
X6019800Y-3149600D01*
X6019800Y-3149600D02*
X6019800Y-5549900D01*
X6019800Y-5549900D02*
X8623300Y-5549900D01*
X8623300Y-5549900D02*
X8623300Y-3149600D01*
D11*
X6272419Y-5865376D02*
X6272419Y-5665376D01*
X6320038Y-5665376D01*
X6348609Y-5674900D01*
X6367657Y-5693948D01*
X6377181Y-5712995D01*
X6386705Y-5751090D01*
X6386705Y-5779662D01*
X6377181Y-5817757D01*
X6367657Y-5836805D01*
X6348609Y-5855852D01*
X6320038Y-5865376D01*
X6272419Y-5865376D01*
X6472419Y-5865376D02*
X6472419Y-5732043D01*
X6472419Y-5770138D02*
X6481943Y-5751090D01*
X6491467Y-5741567D01*
X6510514Y-5732043D01*
X6529562Y-5732043D01*
X6596228Y-5865376D02*
X6596228Y-5732043D01*
X6596228Y-5665376D02*
X6586705Y-5674900D01*
X6596228Y-5684424D01*
X6605752Y-5674900D01*
X6596228Y-5665376D01*
X6596228Y-5684424D01*
X6720038Y-5865376D02*
X6700990Y-5855852D01*
X6691467Y-5836805D01*
X6691467Y-5665376D01*
X6824800Y-5865376D02*
X6805752Y-5855852D01*
X6796228Y-5836805D01*
X6796228Y-5665376D01*
X7053371Y-5865376D02*
X7053371Y-5665376D01*
X7120038Y-5808233D01*
X7186705Y-5665376D01*
X7186705Y-5865376D01*
X7367657Y-5865376D02*
X7367657Y-5760614D01*
X7358133Y-5741567D01*
X7339086Y-5732043D01*
X7300990Y-5732043D01*
X7281943Y-5741567D01*
X7367657Y-5855852D02*
X7348609Y-5865376D01*
X7300990Y-5865376D01*
X7281943Y-5855852D01*
X7272419Y-5836805D01*
X7272419Y-5817757D01*
X7281943Y-5798709D01*
X7300990Y-5789186D01*
X7348609Y-5789186D01*
X7367657Y-5779662D01*
X7462895Y-5732043D02*
X7462895Y-5932043D01*
X7462895Y-5741567D02*
X7481943Y-5732043D01*
X7520038Y-5732043D01*
X7539086Y-5741567D01*
X7548609Y-5751090D01*
X7558133Y-5770138D01*
X7558133Y-5827281D01*
X7548609Y-5846328D01*
X7539086Y-5855852D01*
X7520038Y-5865376D01*
X7481943Y-5865376D01*
X7462895Y-5855852D01*
X7643848Y-5846328D02*
X7653371Y-5855852D01*
X7643848Y-5865376D01*
X7634324Y-5855852D01*
X7643848Y-5846328D01*
X7643848Y-5865376D01*
X7643848Y-5741567D02*
X7653371Y-5751090D01*
X7643848Y-5760614D01*
X7634324Y-5751090D01*
X7643848Y-5741567D01*
X7643848Y-5760614D01*
M02*
