G04 #@! TF.GenerationSoftware,KiCad,Pcbnew,6.0.5+dfsg-1~bpo11+1*
G04 #@! TF.ProjectId,esp8266_pzem16_ac,65737038-3236-4365-9f70-7a656d31365f,rev?*
G04 #@! TF.SameCoordinates,Original*
G04 #@! TF.FileFunction,Legend,Bot*
G04 #@! TF.FilePolarity,Positive*
%FSLAX46Y46*%
G04 Gerber Fmt 4.6, Leading zero omitted, Abs format (unit mm)*
%MOMM*%
%LPD*%
G01*
G04 APERTURE LIST*
%ADD10C,0.150000*%
%ADD11C,0.120000*%
%ADD12R,1.524000X2.286000*%
%ADD13R,2.000000X1.500000*%
%ADD14R,2.000000X3.800000*%
G04 APERTURE END LIST*
D10*
X67233666Y-52304904D02*
X67233666Y-51504904D01*
X66928904Y-51504904D01*
X66852714Y-51543000D01*
X66814619Y-51581095D01*
X66776523Y-51657285D01*
X66776523Y-51771571D01*
X66814619Y-51847761D01*
X66852714Y-51885857D01*
X66928904Y-51923952D01*
X67233666Y-51923952D01*
X66509857Y-51504904D02*
X66319380Y-52304904D01*
X66167000Y-51733476D01*
X66014619Y-52304904D01*
X65824142Y-51504904D01*
X65062238Y-52304904D02*
X65328904Y-51923952D01*
X65519380Y-52304904D02*
X65519380Y-51504904D01*
X65214619Y-51504904D01*
X65138428Y-51543000D01*
X65100333Y-51581095D01*
X65062238Y-51657285D01*
X65062238Y-51771571D01*
X65100333Y-51847761D01*
X65138428Y-51885857D01*
X65214619Y-51923952D01*
X65519380Y-51923952D01*
X81138071Y-53998000D02*
X80709500Y-53998000D01*
X81223785Y-54255142D02*
X80923785Y-53355142D01*
X80623785Y-54255142D01*
X72368785Y-53271000D02*
X72454500Y-53228142D01*
X72583071Y-53228142D01*
X72711642Y-53271000D01*
X72797357Y-53356714D01*
X72840214Y-53442428D01*
X72883071Y-53613857D01*
X72883071Y-53742428D01*
X72840214Y-53913857D01*
X72797357Y-53999571D01*
X72711642Y-54085285D01*
X72583071Y-54128142D01*
X72497357Y-54128142D01*
X72368785Y-54085285D01*
X72325928Y-54042428D01*
X72325928Y-53742428D01*
X72497357Y-53742428D01*
X71940214Y-54128142D02*
X71940214Y-53228142D01*
X71425928Y-54128142D01*
X71425928Y-53228142D01*
X70997357Y-54128142D02*
X70997357Y-53228142D01*
X70783071Y-53228142D01*
X70654500Y-53271000D01*
X70568785Y-53356714D01*
X70525928Y-53442428D01*
X70483071Y-53613857D01*
X70483071Y-53742428D01*
X70525928Y-53913857D01*
X70568785Y-53999571D01*
X70654500Y-54085285D01*
X70783071Y-54128142D01*
X70997357Y-54128142D01*
X77999642Y-53228142D02*
X78428214Y-53228142D01*
X78471071Y-53656714D01*
X78428214Y-53613857D01*
X78342500Y-53571000D01*
X78128214Y-53571000D01*
X78042500Y-53613857D01*
X77999642Y-53656714D01*
X77956785Y-53742428D01*
X77956785Y-53956714D01*
X77999642Y-54042428D01*
X78042500Y-54085285D01*
X78128214Y-54128142D01*
X78342500Y-54128142D01*
X78428214Y-54085285D01*
X78471071Y-54042428D01*
X77699642Y-53228142D02*
X77399642Y-54128142D01*
X77099642Y-53228142D01*
X62151214Y-41332785D02*
X62151214Y-41632785D01*
X62622642Y-41761357D02*
X62622642Y-41332785D01*
X61722642Y-41332785D01*
X61722642Y-41761357D01*
X62579785Y-42104214D02*
X62622642Y-42232785D01*
X62622642Y-42447071D01*
X62579785Y-42532785D01*
X62536928Y-42575642D01*
X62451214Y-42618500D01*
X62365500Y-42618500D01*
X62279785Y-42575642D01*
X62236928Y-42532785D01*
X62194071Y-42447071D01*
X62151214Y-42275642D01*
X62108357Y-42189928D01*
X62065500Y-42147071D01*
X61979785Y-42104214D01*
X61894071Y-42104214D01*
X61808357Y-42147071D01*
X61765500Y-42189928D01*
X61722642Y-42275642D01*
X61722642Y-42489928D01*
X61765500Y-42618500D01*
X62622642Y-43004214D02*
X61722642Y-43004214D01*
X61722642Y-43347071D01*
X61765500Y-43432785D01*
X61808357Y-43475642D01*
X61894071Y-43518500D01*
X62022642Y-43518500D01*
X62108357Y-43475642D01*
X62151214Y-43432785D01*
X62194071Y-43347071D01*
X62194071Y-43004214D01*
X62279785Y-43904214D02*
X62279785Y-44589928D01*
X62622642Y-45489928D02*
X62622642Y-44975642D01*
X62622642Y-45232785D02*
X61722642Y-45232785D01*
X61851214Y-45147071D01*
X61936928Y-45061357D01*
X61979785Y-44975642D01*
X61808357Y-45832785D02*
X61765500Y-45875642D01*
X61722642Y-45961357D01*
X61722642Y-46175642D01*
X61765500Y-46261357D01*
X61808357Y-46304214D01*
X61894071Y-46347071D01*
X61979785Y-46347071D01*
X62108357Y-46304214D01*
X62622642Y-45789928D01*
X62622642Y-46347071D01*
X62151214Y-47032785D02*
X62151214Y-46732785D01*
X62622642Y-46732785D02*
X61722642Y-46732785D01*
X61722642Y-47161357D01*
X64071642Y-41847071D02*
X63643071Y-41547071D01*
X64071642Y-41332785D02*
X63171642Y-41332785D01*
X63171642Y-41675642D01*
X63214500Y-41761357D01*
X63257357Y-41804214D01*
X63343071Y-41847071D01*
X63471642Y-41847071D01*
X63557357Y-41804214D01*
X63600214Y-41761357D01*
X63643071Y-41675642D01*
X63643071Y-41332785D01*
X64028785Y-42189928D02*
X64071642Y-42318500D01*
X64071642Y-42532785D01*
X64028785Y-42618500D01*
X63985928Y-42661357D01*
X63900214Y-42704214D01*
X63814500Y-42704214D01*
X63728785Y-42661357D01*
X63685928Y-42618500D01*
X63643071Y-42532785D01*
X63600214Y-42361357D01*
X63557357Y-42275642D01*
X63514500Y-42232785D01*
X63428785Y-42189928D01*
X63343071Y-42189928D01*
X63257357Y-42232785D01*
X63214500Y-42275642D01*
X63171642Y-42361357D01*
X63171642Y-42575642D01*
X63214500Y-42704214D01*
X63471642Y-43475642D02*
X64071642Y-43475642D01*
X63128785Y-43261357D02*
X63771642Y-43047071D01*
X63771642Y-43604214D01*
X63557357Y-44075642D02*
X63514500Y-43989928D01*
X63471642Y-43947071D01*
X63385928Y-43904214D01*
X63343071Y-43904214D01*
X63257357Y-43947071D01*
X63214500Y-43989928D01*
X63171642Y-44075642D01*
X63171642Y-44247071D01*
X63214500Y-44332785D01*
X63257357Y-44375642D01*
X63343071Y-44418500D01*
X63385928Y-44418500D01*
X63471642Y-44375642D01*
X63514500Y-44332785D01*
X63557357Y-44247071D01*
X63557357Y-44075642D01*
X63600214Y-43989928D01*
X63643071Y-43947071D01*
X63728785Y-43904214D01*
X63900214Y-43904214D01*
X63985928Y-43947071D01*
X64028785Y-43989928D01*
X64071642Y-44075642D01*
X64071642Y-44247071D01*
X64028785Y-44332785D01*
X63985928Y-44375642D01*
X63900214Y-44418500D01*
X63728785Y-44418500D01*
X63643071Y-44375642D01*
X63600214Y-44332785D01*
X63557357Y-44247071D01*
X63171642Y-45232785D02*
X63171642Y-44804214D01*
X63600214Y-44761357D01*
X63557357Y-44804214D01*
X63514500Y-44889928D01*
X63514500Y-45104214D01*
X63557357Y-45189928D01*
X63600214Y-45232785D01*
X63685928Y-45275642D01*
X63900214Y-45275642D01*
X63985928Y-45232785D01*
X64028785Y-45189928D01*
X64071642Y-45104214D01*
X64071642Y-44889928D01*
X64028785Y-44804214D01*
X63985928Y-44761357D01*
X64071642Y-46347071D02*
X63471642Y-46347071D01*
X63171642Y-46347071D02*
X63214500Y-46304214D01*
X63257357Y-46347071D01*
X63214500Y-46389928D01*
X63171642Y-46347071D01*
X63257357Y-46347071D01*
X63471642Y-46775642D02*
X64071642Y-46775642D01*
X63557357Y-46775642D02*
X63514500Y-46818500D01*
X63471642Y-46904214D01*
X63471642Y-47032785D01*
X63514500Y-47118500D01*
X63600214Y-47161357D01*
X64071642Y-47161357D01*
X63471642Y-47461357D02*
X63471642Y-47804214D01*
X63171642Y-47589928D02*
X63943071Y-47589928D01*
X64028785Y-47632785D01*
X64071642Y-47718500D01*
X64071642Y-47804214D01*
X64028785Y-48447071D02*
X64071642Y-48361357D01*
X64071642Y-48189928D01*
X64028785Y-48104214D01*
X63943071Y-48061357D01*
X63600214Y-48061357D01*
X63514500Y-48104214D01*
X63471642Y-48189928D01*
X63471642Y-48361357D01*
X63514500Y-48447071D01*
X63600214Y-48489928D01*
X63685928Y-48489928D01*
X63771642Y-48061357D01*
X64071642Y-48875642D02*
X63471642Y-48875642D01*
X63643071Y-48875642D02*
X63557357Y-48918500D01*
X63514500Y-48961357D01*
X63471642Y-49047071D01*
X63471642Y-49132785D01*
X63471642Y-49304214D02*
X63471642Y-49647071D01*
X64071642Y-49432785D02*
X63300214Y-49432785D01*
X63214500Y-49475642D01*
X63171642Y-49561357D01*
X63171642Y-49647071D01*
X64071642Y-50332785D02*
X63600214Y-50332785D01*
X63514500Y-50289928D01*
X63471642Y-50204214D01*
X63471642Y-50032785D01*
X63514500Y-49947071D01*
X64028785Y-50332785D02*
X64071642Y-50247071D01*
X64071642Y-50032785D01*
X64028785Y-49947071D01*
X63943071Y-49904214D01*
X63857357Y-49904214D01*
X63771642Y-49947071D01*
X63728785Y-50032785D01*
X63728785Y-50247071D01*
X63685928Y-50332785D01*
X64028785Y-51147071D02*
X64071642Y-51061357D01*
X64071642Y-50889928D01*
X64028785Y-50804214D01*
X63985928Y-50761357D01*
X63900214Y-50718500D01*
X63643071Y-50718500D01*
X63557357Y-50761357D01*
X63514500Y-50804214D01*
X63471642Y-50889928D01*
X63471642Y-51061357D01*
X63514500Y-51147071D01*
X64028785Y-51875642D02*
X64071642Y-51789928D01*
X64071642Y-51618500D01*
X64028785Y-51532785D01*
X63943071Y-51489928D01*
X63600214Y-51489928D01*
X63514500Y-51532785D01*
X63471642Y-51618500D01*
X63471642Y-51789928D01*
X63514500Y-51875642D01*
X63600214Y-51918500D01*
X63685928Y-51918500D01*
X63771642Y-51489928D01*
X66069642Y-41204214D02*
X66969642Y-41504214D01*
X66069642Y-41804214D01*
X66969642Y-42575642D02*
X66969642Y-42061357D01*
X66969642Y-42318500D02*
X66069642Y-42318500D01*
X66198214Y-42232785D01*
X66283928Y-42147071D01*
X66326785Y-42061357D01*
X66883928Y-42961357D02*
X66926785Y-43004214D01*
X66969642Y-42961357D01*
X66926785Y-42918500D01*
X66883928Y-42961357D01*
X66969642Y-42961357D01*
X66069642Y-43561357D02*
X66069642Y-43647071D01*
X66112500Y-43732785D01*
X66155357Y-43775642D01*
X66241071Y-43818500D01*
X66412500Y-43861357D01*
X66626785Y-43861357D01*
X66798214Y-43818500D01*
X66883928Y-43775642D01*
X66926785Y-43732785D01*
X66969642Y-43647071D01*
X66969642Y-43561357D01*
X66926785Y-43475642D01*
X66883928Y-43432785D01*
X66798214Y-43389928D01*
X66626785Y-43347071D01*
X66412500Y-43347071D01*
X66241071Y-43389928D01*
X66155357Y-43432785D01*
X66112500Y-43475642D01*
X66069642Y-43561357D01*
X66155357Y-44889928D02*
X66112500Y-44932785D01*
X66069642Y-45018500D01*
X66069642Y-45232785D01*
X66112500Y-45318500D01*
X66155357Y-45361357D01*
X66241071Y-45404214D01*
X66326785Y-45404214D01*
X66455357Y-45361357D01*
X66969642Y-44847071D01*
X66969642Y-45404214D01*
X66069642Y-45961357D02*
X66069642Y-46047071D01*
X66112500Y-46132785D01*
X66155357Y-46175642D01*
X66241071Y-46218500D01*
X66412500Y-46261357D01*
X66626785Y-46261357D01*
X66798214Y-46218500D01*
X66883928Y-46175642D01*
X66926785Y-46132785D01*
X66969642Y-46047071D01*
X66969642Y-45961357D01*
X66926785Y-45875642D01*
X66883928Y-45832785D01*
X66798214Y-45789928D01*
X66626785Y-45747071D01*
X66412500Y-45747071D01*
X66241071Y-45789928D01*
X66155357Y-45832785D01*
X66112500Y-45875642D01*
X66069642Y-45961357D01*
X66155357Y-46604214D02*
X66112500Y-46647071D01*
X66069642Y-46732785D01*
X66069642Y-46947071D01*
X66112500Y-47032785D01*
X66155357Y-47075642D01*
X66241071Y-47118500D01*
X66326785Y-47118500D01*
X66455357Y-47075642D01*
X66969642Y-46561357D01*
X66969642Y-47118500D01*
X66069642Y-47418500D02*
X66069642Y-47975642D01*
X66412500Y-47675642D01*
X66412500Y-47804214D01*
X66455357Y-47889928D01*
X66498214Y-47932785D01*
X66583928Y-47975642D01*
X66798214Y-47975642D01*
X66883928Y-47932785D01*
X66926785Y-47889928D01*
X66969642Y-47804214D01*
X66969642Y-47547071D01*
X66926785Y-47461357D01*
X66883928Y-47418500D01*
X67113000Y-33254904D02*
X67113000Y-32454904D01*
X66922523Y-32454904D01*
X66808238Y-32493000D01*
X66732047Y-32569190D01*
X66693952Y-32645380D01*
X66655857Y-32797761D01*
X66655857Y-32912047D01*
X66693952Y-33064428D01*
X66732047Y-33140619D01*
X66808238Y-33216809D01*
X66922523Y-33254904D01*
X67113000Y-33254904D01*
X66351095Y-33026333D02*
X65970142Y-33026333D01*
X66427285Y-33254904D02*
X66160619Y-32454904D01*
X65893952Y-33254904D01*
X65741571Y-32454904D02*
X65284428Y-32454904D01*
X65512999Y-33254904D02*
X65512999Y-32454904D01*
X65055857Y-33026333D02*
X64674904Y-33026333D01*
X65132047Y-33254904D02*
X64865380Y-32454904D01*
X64598714Y-33254904D01*
X85621214Y-53783714D02*
X85492642Y-53826571D01*
X85449785Y-53869428D01*
X85406928Y-53955142D01*
X85406928Y-54083714D01*
X85449785Y-54169428D01*
X85492642Y-54212285D01*
X85578357Y-54255142D01*
X85921214Y-54255142D01*
X85921214Y-53355142D01*
X85621214Y-53355142D01*
X85535500Y-53398000D01*
X85492642Y-53440857D01*
X85449785Y-53526571D01*
X85449785Y-53612285D01*
X85492642Y-53698000D01*
X85535500Y-53740857D01*
X85621214Y-53783714D01*
X85921214Y-53783714D01*
X87352142Y-37790523D02*
X87399761Y-37742904D01*
X87447380Y-37600047D01*
X87447380Y-37504809D01*
X87399761Y-37361952D01*
X87304523Y-37266714D01*
X87209285Y-37219095D01*
X87018809Y-37171476D01*
X86875952Y-37171476D01*
X86685476Y-37219095D01*
X86590238Y-37266714D01*
X86495000Y-37361952D01*
X86447380Y-37504809D01*
X86447380Y-37600047D01*
X86495000Y-37742904D01*
X86542619Y-37790523D01*
X86447380Y-38219095D02*
X87256904Y-38219095D01*
X87352142Y-38266714D01*
X87399761Y-38314333D01*
X87447380Y-38409571D01*
X87447380Y-38600047D01*
X87399761Y-38695285D01*
X87352142Y-38742904D01*
X87256904Y-38790523D01*
X86447380Y-38790523D01*
X87447380Y-39790523D02*
X87447380Y-39219095D01*
X87447380Y-39504809D02*
X86447380Y-39504809D01*
X86590238Y-39409571D01*
X86685476Y-39314333D01*
X86733095Y-39219095D01*
X62337904Y-51428666D02*
X61956952Y-51162000D01*
X62337904Y-50971523D02*
X61537904Y-50971523D01*
X61537904Y-51276285D01*
X61576000Y-51352476D01*
X61614095Y-51390571D01*
X61690285Y-51428666D01*
X61804571Y-51428666D01*
X61880761Y-51390571D01*
X61918857Y-51352476D01*
X61956952Y-51276285D01*
X61956952Y-50971523D01*
X61537904Y-52114380D02*
X61537904Y-51962000D01*
X61576000Y-51885809D01*
X61614095Y-51847714D01*
X61728380Y-51771523D01*
X61880761Y-51733428D01*
X62185523Y-51733428D01*
X62261714Y-51771523D01*
X62299809Y-51809619D01*
X62337904Y-51885809D01*
X62337904Y-52038190D01*
X62299809Y-52114380D01*
X62261714Y-52152476D01*
X62185523Y-52190571D01*
X61995047Y-52190571D01*
X61918857Y-52152476D01*
X61880761Y-52114380D01*
X61842666Y-52038190D01*
X61842666Y-51885809D01*
X61880761Y-51809619D01*
X61918857Y-51771523D01*
X61995047Y-51733428D01*
X79952904Y-47904476D02*
X80600523Y-47904476D01*
X80676714Y-47942571D01*
X80714809Y-47980666D01*
X80752904Y-48056857D01*
X80752904Y-48209238D01*
X80714809Y-48285428D01*
X80676714Y-48323523D01*
X80600523Y-48361619D01*
X79952904Y-48361619D01*
X80029095Y-48704476D02*
X79991000Y-48742571D01*
X79952904Y-48818761D01*
X79952904Y-49009238D01*
X79991000Y-49085428D01*
X80029095Y-49123523D01*
X80105285Y-49161619D01*
X80181476Y-49161619D01*
X80295761Y-49123523D01*
X80752904Y-48666380D01*
X80752904Y-49161619D01*
X68230714Y-46475666D02*
X68268809Y-46437571D01*
X68306904Y-46323285D01*
X68306904Y-46247095D01*
X68268809Y-46132809D01*
X68192619Y-46056619D01*
X68116428Y-46018523D01*
X67964047Y-45980428D01*
X67849761Y-45980428D01*
X67697380Y-46018523D01*
X67621190Y-46056619D01*
X67545000Y-46132809D01*
X67506904Y-46247095D01*
X67506904Y-46323285D01*
X67545000Y-46437571D01*
X67583095Y-46475666D01*
X68306904Y-47237571D02*
X68306904Y-46780428D01*
X68306904Y-47009000D02*
X67506904Y-47009000D01*
X67621190Y-46932809D01*
X67697380Y-46856619D01*
X67735476Y-46780428D01*
X68230714Y-50031666D02*
X68268809Y-49993571D01*
X68306904Y-49879285D01*
X68306904Y-49803095D01*
X68268809Y-49688809D01*
X68192619Y-49612619D01*
X68116428Y-49574523D01*
X67964047Y-49536428D01*
X67849761Y-49536428D01*
X67697380Y-49574523D01*
X67621190Y-49612619D01*
X67545000Y-49688809D01*
X67506904Y-49803095D01*
X67506904Y-49879285D01*
X67545000Y-49993571D01*
X67583095Y-50031666D01*
X67583095Y-50336428D02*
X67545000Y-50374523D01*
X67506904Y-50450714D01*
X67506904Y-50641190D01*
X67545000Y-50717380D01*
X67583095Y-50755476D01*
X67659285Y-50793571D01*
X67735476Y-50793571D01*
X67849761Y-50755476D01*
X68306904Y-50298333D01*
X68306904Y-50793571D01*
D11*
X64071000Y-31841000D02*
X61211000Y-31841000D01*
X61211000Y-33761000D02*
X64071000Y-33761000D01*
X64071000Y-33761000D02*
X64071000Y-31841000D01*
X64326000Y-54564000D02*
X67186000Y-54564000D01*
X67186000Y-52644000D02*
X64326000Y-52644000D01*
X64326000Y-52644000D02*
X64326000Y-54564000D01*
X67945000Y-32131000D02*
X85979000Y-32131000D01*
X67945000Y-44577000D02*
X67945000Y-32131000D01*
X85979000Y-32131000D02*
X85979000Y-44323000D01*
G36*
X64565074Y-34837705D02*
G01*
X64796912Y-35263667D01*
X65108667Y-35264220D01*
X66675000Y-35266997D01*
X67111980Y-36048498D01*
X67246198Y-36295961D01*
X67399419Y-36601231D01*
X67501503Y-36833836D01*
X67535314Y-36957000D01*
X67511285Y-37032183D01*
X67419355Y-37238728D01*
X67275716Y-37529241D01*
X67098334Y-37866333D01*
X66675000Y-38648665D01*
X66230500Y-38649499D01*
X66058556Y-38654798D01*
X65862803Y-38678214D01*
X65787020Y-38713834D01*
X65798367Y-38753662D01*
X65872108Y-38912571D01*
X65991569Y-39133278D01*
X66195098Y-39489222D01*
X65969382Y-39915732D01*
X65743667Y-40342242D01*
X64761692Y-40342955D01*
X63779718Y-40343667D01*
X63625156Y-40000910D01*
X63581728Y-39908559D01*
X63476030Y-39713204D01*
X63401651Y-39615544D01*
X63362901Y-39627184D01*
X63263767Y-39747526D01*
X63145483Y-39958301D01*
X62958258Y-40343667D01*
X62445962Y-40341846D01*
X61933667Y-40340025D01*
X61243276Y-39073877D01*
X60643003Y-37973000D01*
X62822667Y-37973000D01*
X65108667Y-37973000D01*
X65108667Y-37443159D01*
X64325500Y-37495020D01*
X64051861Y-37511529D01*
X63801618Y-37517120D01*
X63707457Y-37496083D01*
X63770484Y-37441588D01*
X63991806Y-37346806D01*
X64372532Y-37204907D01*
X64410484Y-37190899D01*
X64697025Y-37062175D01*
X64824032Y-36943937D01*
X64789514Y-36827353D01*
X64591479Y-36703591D01*
X64227934Y-36563821D01*
X64197211Y-36553411D01*
X63909329Y-36450843D01*
X63692970Y-36365078D01*
X63592934Y-36313756D01*
X63605700Y-36302326D01*
X63741428Y-36294011D01*
X63992666Y-36300533D01*
X64325500Y-36321533D01*
X65108667Y-36382310D01*
X65108667Y-35856334D01*
X62822667Y-35856334D01*
X62822667Y-36138013D01*
X62828379Y-36269003D01*
X62867046Y-36369147D01*
X62970523Y-36450670D01*
X63170658Y-36537918D01*
X63499298Y-36655234D01*
X63623550Y-36699718D01*
X63898977Y-36808863D01*
X64082492Y-36897481D01*
X64139527Y-36949675D01*
X64130357Y-36958326D01*
X64004519Y-37019012D01*
X63768140Y-37108022D01*
X63462896Y-37209360D01*
X63201795Y-37292814D01*
X62986071Y-37374781D01*
X62873133Y-37451874D01*
X62829744Y-37549127D01*
X62822667Y-37691573D01*
X62822667Y-37973000D01*
X60643003Y-37973000D01*
X60552885Y-37807728D01*
X60777609Y-37383076D01*
X61002334Y-36958425D01*
X61468000Y-36956492D01*
X61933667Y-36954560D01*
X62404661Y-36100704D01*
X61948311Y-35262238D01*
X62389503Y-34459334D01*
X63361370Y-34435538D01*
X64333237Y-34411743D01*
X64565074Y-34837705D01*
G37*
X61899436Y-54329000D02*
X62353564Y-54329000D01*
X61899436Y-52859000D02*
X62353564Y-52859000D01*
X76967000Y-52065000D02*
X76967000Y-50805000D01*
X73207000Y-45245000D02*
X76967000Y-45245000D01*
X70957000Y-52065000D02*
X76967000Y-52065000D01*
X76967000Y-45245000D02*
X76967000Y-46505000D01*
X68836000Y-47011252D02*
X68836000Y-46488748D01*
X70306000Y-47011252D02*
X70306000Y-46488748D01*
X70306000Y-50105748D02*
X70306000Y-50628252D01*
X68836000Y-50105748D02*
X68836000Y-50628252D01*
%LPC*%
G36*
G01*
X63821000Y-32361000D02*
X63821000Y-33261000D01*
G75*
G02*
X63571000Y-33511000I-250000J0D01*
G01*
X62921000Y-33511000D01*
G75*
G02*
X62671000Y-33261000I0J250000D01*
G01*
X62671000Y-32361000D01*
G75*
G02*
X62921000Y-32111000I250000J0D01*
G01*
X63571000Y-32111000D01*
G75*
G02*
X63821000Y-32361000I0J-250000D01*
G01*
G37*
G36*
G01*
X61771000Y-32361000D02*
X61771000Y-33261000D01*
G75*
G02*
X61521000Y-33511000I-250000J0D01*
G01*
X60871000Y-33511000D01*
G75*
G02*
X60621000Y-33261000I0J250000D01*
G01*
X60621000Y-32361000D01*
G75*
G02*
X60871000Y-32111000I250000J0D01*
G01*
X61521000Y-32111000D01*
G75*
G02*
X61771000Y-32361000I0J-250000D01*
G01*
G37*
G36*
G01*
X64576000Y-54044000D02*
X64576000Y-53144000D01*
G75*
G02*
X64826000Y-52894000I250000J0D01*
G01*
X65476000Y-52894000D01*
G75*
G02*
X65726000Y-53144000I0J-250000D01*
G01*
X65726000Y-54044000D01*
G75*
G02*
X65476000Y-54294000I-250000J0D01*
G01*
X64826000Y-54294000D01*
G75*
G02*
X64576000Y-54044000I0J250000D01*
G01*
G37*
G36*
G01*
X66626000Y-54044000D02*
X66626000Y-53144000D01*
G75*
G02*
X66876000Y-52894000I250000J0D01*
G01*
X67526000Y-52894000D01*
G75*
G02*
X67776000Y-53144000I0J-250000D01*
G01*
X67776000Y-54044000D01*
G75*
G02*
X67526000Y-54294000I-250000J0D01*
G01*
X66876000Y-54294000D01*
G75*
G02*
X66626000Y-54044000I0J250000D01*
G01*
G37*
D12*
X69215000Y-43053000D03*
X71755000Y-43053000D03*
X74295000Y-43053000D03*
X76835000Y-43053000D03*
X79375000Y-43053000D03*
X81915000Y-43053000D03*
X84455000Y-43053000D03*
G36*
G01*
X76422000Y-54991000D02*
X75660000Y-54991000D01*
G75*
G02*
X75279000Y-54610000I0J381000D01*
G01*
X75279000Y-53086000D01*
G75*
G02*
X75660000Y-52705000I381000J0D01*
G01*
X76422000Y-52705000D01*
G75*
G02*
X76803000Y-53086000I0J-381000D01*
G01*
X76803000Y-54610000D01*
G75*
G02*
X76422000Y-54991000I-381000J0D01*
G01*
G37*
G36*
G01*
X74422000Y-54991000D02*
X73660000Y-54991000D01*
G75*
G02*
X73279000Y-54610000I0J381000D01*
G01*
X73279000Y-53086000D01*
G75*
G02*
X73660000Y-52705000I381000J0D01*
G01*
X74422000Y-52705000D01*
G75*
G02*
X74803000Y-53086000I0J-381000D01*
G01*
X74803000Y-54610000D01*
G75*
G02*
X74422000Y-54991000I-381000J0D01*
G01*
G37*
G36*
G01*
X60701500Y-54044000D02*
X60701500Y-53144000D01*
G75*
G02*
X60951500Y-52894000I250000J0D01*
G01*
X61476500Y-52894000D01*
G75*
G02*
X61726500Y-53144000I0J-250000D01*
G01*
X61726500Y-54044000D01*
G75*
G02*
X61476500Y-54294000I-250000J0D01*
G01*
X60951500Y-54294000D01*
G75*
G02*
X60701500Y-54044000I0J250000D01*
G01*
G37*
G36*
G01*
X62526500Y-54044000D02*
X62526500Y-53144000D01*
G75*
G02*
X62776500Y-52894000I250000J0D01*
G01*
X63301500Y-52894000D01*
G75*
G02*
X63551500Y-53144000I0J-250000D01*
G01*
X63551500Y-54044000D01*
G75*
G02*
X63301500Y-54294000I-250000J0D01*
G01*
X62776500Y-54294000D01*
G75*
G02*
X62526500Y-54044000I0J250000D01*
G01*
G37*
D13*
X71907000Y-50955000D03*
D14*
X78207000Y-48655000D03*
D13*
X71907000Y-48655000D03*
X71907000Y-46355000D03*
G36*
G01*
X84709000Y-54991000D02*
X83947000Y-54991000D01*
G75*
G02*
X83566000Y-54610000I0J381000D01*
G01*
X83566000Y-53086000D01*
G75*
G02*
X83947000Y-52705000I381000J0D01*
G01*
X84709000Y-52705000D01*
G75*
G02*
X85090000Y-53086000I0J-381000D01*
G01*
X85090000Y-54610000D01*
G75*
G02*
X84709000Y-54991000I-381000J0D01*
G01*
G37*
G36*
G01*
X82709000Y-54991000D02*
X81947000Y-54991000D01*
G75*
G02*
X81566000Y-54610000I0J381000D01*
G01*
X81566000Y-53086000D01*
G75*
G02*
X81947000Y-52705000I381000J0D01*
G01*
X82709000Y-52705000D01*
G75*
G02*
X83090000Y-53086000I0J-381000D01*
G01*
X83090000Y-54610000D01*
G75*
G02*
X82709000Y-54991000I-381000J0D01*
G01*
G37*
G36*
G01*
X70046000Y-48200000D02*
X69096000Y-48200000D01*
G75*
G02*
X68846000Y-47950000I0J250000D01*
G01*
X68846000Y-47450000D01*
G75*
G02*
X69096000Y-47200000I250000J0D01*
G01*
X70046000Y-47200000D01*
G75*
G02*
X70296000Y-47450000I0J-250000D01*
G01*
X70296000Y-47950000D01*
G75*
G02*
X70046000Y-48200000I-250000J0D01*
G01*
G37*
G36*
G01*
X70046000Y-46300000D02*
X69096000Y-46300000D01*
G75*
G02*
X68846000Y-46050000I0J250000D01*
G01*
X68846000Y-45550000D01*
G75*
G02*
X69096000Y-45300000I250000J0D01*
G01*
X70046000Y-45300000D01*
G75*
G02*
X70296000Y-45550000I0J-250000D01*
G01*
X70296000Y-46050000D01*
G75*
G02*
X70046000Y-46300000I-250000J0D01*
G01*
G37*
G36*
G01*
X69096000Y-48917000D02*
X70046000Y-48917000D01*
G75*
G02*
X70296000Y-49167000I0J-250000D01*
G01*
X70296000Y-49667000D01*
G75*
G02*
X70046000Y-49917000I-250000J0D01*
G01*
X69096000Y-49917000D01*
G75*
G02*
X68846000Y-49667000I0J250000D01*
G01*
X68846000Y-49167000D01*
G75*
G02*
X69096000Y-48917000I250000J0D01*
G01*
G37*
G36*
G01*
X69096000Y-50817000D02*
X70046000Y-50817000D01*
G75*
G02*
X70296000Y-51067000I0J-250000D01*
G01*
X70296000Y-51567000D01*
G75*
G02*
X70046000Y-51817000I-250000J0D01*
G01*
X69096000Y-51817000D01*
G75*
G02*
X68846000Y-51567000I0J250000D01*
G01*
X68846000Y-51067000D01*
G75*
G02*
X69096000Y-50817000I250000J0D01*
G01*
G37*
M02*
