G04 #@! TF.GenerationSoftware,KiCad,Pcbnew,6.0.5+dfsg-1~bpo11+1*
G04 #@! TF.ProjectId,esp8266_pzem16_ac,65737038-3236-4365-9f70-7a656d31365f,rev?*
G04 #@! TF.SameCoordinates,Original*
G04 #@! TF.FileFunction,Paste,Top*
G04 #@! TF.FilePolarity,Positive*
%FSLAX46Y46*%
G04 Gerber Fmt 4.6, Leading zero omitted, Abs format (unit mm)*
%MOMM*%
%LPD*%
G01*
G04 APERTURE LIST*
%ADD10R,1.000000X2.500000*%
%ADD11R,1.800000X1.000000*%
G04 APERTURE END LIST*
G36*
G01*
X80363000Y-33216000D02*
X80363000Y-32316000D01*
G75*
G02*
X80613000Y-32066000I250000J0D01*
G01*
X81138000Y-32066000D01*
G75*
G02*
X81388000Y-32316000I0J-250000D01*
G01*
X81388000Y-33216000D01*
G75*
G02*
X81138000Y-33466000I-250000J0D01*
G01*
X80613000Y-33466000D01*
G75*
G02*
X80363000Y-33216000I0J250000D01*
G01*
G37*
G36*
G01*
X82188000Y-33216000D02*
X82188000Y-32316000D01*
G75*
G02*
X82438000Y-32066000I250000J0D01*
G01*
X82963000Y-32066000D01*
G75*
G02*
X83213000Y-32316000I0J-250000D01*
G01*
X83213000Y-33216000D01*
G75*
G02*
X82963000Y-33466000I-250000J0D01*
G01*
X82438000Y-33466000D01*
G75*
G02*
X82188000Y-33216000I0J250000D01*
G01*
G37*
G36*
G01*
X76228000Y-53144000D02*
X76228000Y-54044000D01*
G75*
G02*
X75978000Y-54294000I-250000J0D01*
G01*
X75453000Y-54294000D01*
G75*
G02*
X75203000Y-54044000I0J250000D01*
G01*
X75203000Y-53144000D01*
G75*
G02*
X75453000Y-52894000I250000J0D01*
G01*
X75978000Y-52894000D01*
G75*
G02*
X76228000Y-53144000I0J-250000D01*
G01*
G37*
G36*
G01*
X74403000Y-53144000D02*
X74403000Y-54044000D01*
G75*
G02*
X74153000Y-54294000I-250000J0D01*
G01*
X73628000Y-54294000D01*
G75*
G02*
X73378000Y-54044000I0J250000D01*
G01*
X73378000Y-53144000D01*
G75*
G02*
X73628000Y-52894000I250000J0D01*
G01*
X74153000Y-52894000D01*
G75*
G02*
X74403000Y-53144000I0J-250000D01*
G01*
G37*
G36*
G01*
X76426000Y-33216000D02*
X76426000Y-32316000D01*
G75*
G02*
X76676000Y-32066000I250000J0D01*
G01*
X77201000Y-32066000D01*
G75*
G02*
X77451000Y-32316000I0J-250000D01*
G01*
X77451000Y-33216000D01*
G75*
G02*
X77201000Y-33466000I-250000J0D01*
G01*
X76676000Y-33466000D01*
G75*
G02*
X76426000Y-33216000I0J250000D01*
G01*
G37*
G36*
G01*
X78251000Y-33216000D02*
X78251000Y-32316000D01*
G75*
G02*
X78501000Y-32066000I250000J0D01*
G01*
X79026000Y-32066000D01*
G75*
G02*
X79276000Y-32316000I0J-250000D01*
G01*
X79276000Y-33216000D01*
G75*
G02*
X79026000Y-33466000I-250000J0D01*
G01*
X78501000Y-33466000D01*
G75*
G02*
X78251000Y-33216000I0J250000D01*
G01*
G37*
G36*
G01*
X67568500Y-32316000D02*
X67568500Y-33216000D01*
G75*
G02*
X67318500Y-33466000I-250000J0D01*
G01*
X66793500Y-33466000D01*
G75*
G02*
X66543500Y-33216000I0J250000D01*
G01*
X66543500Y-32316000D01*
G75*
G02*
X66793500Y-32066000I250000J0D01*
G01*
X67318500Y-32066000D01*
G75*
G02*
X67568500Y-32316000I0J-250000D01*
G01*
G37*
G36*
G01*
X65743500Y-32316000D02*
X65743500Y-33216000D01*
G75*
G02*
X65493500Y-33466000I-250000J0D01*
G01*
X64968500Y-33466000D01*
G75*
G02*
X64718500Y-33216000I0J250000D01*
G01*
X64718500Y-32316000D01*
G75*
G02*
X64968500Y-32066000I250000J0D01*
G01*
X65493500Y-32066000D01*
G75*
G02*
X65743500Y-32316000I0J-250000D01*
G01*
G37*
G36*
G01*
X69187000Y-33216000D02*
X69187000Y-32316000D01*
G75*
G02*
X69437000Y-32066000I250000J0D01*
G01*
X69962000Y-32066000D01*
G75*
G02*
X70212000Y-32316000I0J-250000D01*
G01*
X70212000Y-33216000D01*
G75*
G02*
X69962000Y-33466000I-250000J0D01*
G01*
X69437000Y-33466000D01*
G75*
G02*
X69187000Y-33216000I0J250000D01*
G01*
G37*
G36*
G01*
X71012000Y-33216000D02*
X71012000Y-32316000D01*
G75*
G02*
X71262000Y-32066000I250000J0D01*
G01*
X71787000Y-32066000D01*
G75*
G02*
X72037000Y-32316000I0J-250000D01*
G01*
X72037000Y-33216000D01*
G75*
G02*
X71787000Y-33466000I-250000J0D01*
G01*
X71262000Y-33466000D01*
G75*
G02*
X71012000Y-33216000I0J250000D01*
G01*
G37*
D10*
X69075000Y-51034000D03*
X71075000Y-51034000D03*
X73075000Y-51034000D03*
X75075000Y-51034000D03*
X77075000Y-51034000D03*
X79075000Y-51034000D03*
X81075000Y-51034000D03*
X83075000Y-51034000D03*
D11*
X84575000Y-48434000D03*
X84575000Y-46434000D03*
X84575000Y-44434000D03*
X84575000Y-42434000D03*
X84575000Y-40434000D03*
X84575000Y-38434000D03*
D10*
X83075000Y-35834000D03*
X81075000Y-35834000D03*
X79075000Y-35834000D03*
X77075000Y-35834000D03*
X75075000Y-35834000D03*
X73075000Y-35834000D03*
X71075000Y-35834000D03*
X69075000Y-35834000D03*
G36*
G01*
X71529000Y-53144000D02*
X71529000Y-54044000D01*
G75*
G02*
X71279000Y-54294000I-250000J0D01*
G01*
X70754000Y-54294000D01*
G75*
G02*
X70504000Y-54044000I0J250000D01*
G01*
X70504000Y-53144000D01*
G75*
G02*
X70754000Y-52894000I250000J0D01*
G01*
X71279000Y-52894000D01*
G75*
G02*
X71529000Y-53144000I0J-250000D01*
G01*
G37*
G36*
G01*
X69704000Y-53144000D02*
X69704000Y-54044000D01*
G75*
G02*
X69454000Y-54294000I-250000J0D01*
G01*
X68929000Y-54294000D01*
G75*
G02*
X68679000Y-54044000I0J250000D01*
G01*
X68679000Y-53144000D01*
G75*
G02*
X68929000Y-52894000I250000J0D01*
G01*
X69454000Y-52894000D01*
G75*
G02*
X69704000Y-53144000I0J-250000D01*
G01*
G37*
M02*
