G04 #@! TF.GenerationSoftware,KiCad,Pcbnew,6.0.5+dfsg-1~bpo11+1*
G04 #@! TF.ProjectId,esp8266_pzem16_ac,65737038-3236-4365-9f70-7a656d31365f,rev?*
G04 #@! TF.SameCoordinates,Original*
G04 #@! TF.FileFunction,Copper,L2,Bot*
G04 #@! TF.FilePolarity,Positive*
%FSLAX46Y46*%
G04 Gerber Fmt 4.6, Leading zero omitted, Abs format (unit mm)*
%MOMM*%
%LPD*%
G01*
G04 APERTURE LIST*
G04 #@! TA.AperFunction,SMDPad,CuDef*
%ADD10R,1.524000X2.286000*%
G04 #@! TD*
G04 #@! TA.AperFunction,SMDPad,CuDef*
%ADD11R,2.000000X1.500000*%
G04 #@! TD*
G04 #@! TA.AperFunction,SMDPad,CuDef*
%ADD12R,2.000000X3.800000*%
G04 #@! TD*
G04 #@! TA.AperFunction,ViaPad*
%ADD13C,0.800000*%
G04 #@! TD*
G04 #@! TA.AperFunction,Conductor*
%ADD14C,0.500000*%
G04 #@! TD*
G04 APERTURE END LIST*
G04 #@! TA.AperFunction,ComponentPad*
G36*
G01*
X63821000Y-32361000D02*
X63821000Y-33261000D01*
G75*
G02*
X63571000Y-33511000I-250000J0D01*
G01*
X62921000Y-33511000D01*
G75*
G02*
X62671000Y-33261000I0J250000D01*
G01*
X62671000Y-32361000D01*
G75*
G02*
X62921000Y-32111000I250000J0D01*
G01*
X63571000Y-32111000D01*
G75*
G02*
X63821000Y-32361000I0J-250000D01*
G01*
G37*
G04 #@! TD.AperFunction*
G04 #@! TA.AperFunction,ComponentPad*
G36*
G01*
X61771000Y-32361000D02*
X61771000Y-33261000D01*
G75*
G02*
X61521000Y-33511000I-250000J0D01*
G01*
X60871000Y-33511000D01*
G75*
G02*
X60621000Y-33261000I0J250000D01*
G01*
X60621000Y-32361000D01*
G75*
G02*
X60871000Y-32111000I250000J0D01*
G01*
X61521000Y-32111000D01*
G75*
G02*
X61771000Y-32361000I0J-250000D01*
G01*
G37*
G04 #@! TD.AperFunction*
G04 #@! TA.AperFunction,ComponentPad*
G36*
G01*
X64576000Y-54044000D02*
X64576000Y-53144000D01*
G75*
G02*
X64826000Y-52894000I250000J0D01*
G01*
X65476000Y-52894000D01*
G75*
G02*
X65726000Y-53144000I0J-250000D01*
G01*
X65726000Y-54044000D01*
G75*
G02*
X65476000Y-54294000I-250000J0D01*
G01*
X64826000Y-54294000D01*
G75*
G02*
X64576000Y-54044000I0J250000D01*
G01*
G37*
G04 #@! TD.AperFunction*
G04 #@! TA.AperFunction,ComponentPad*
G36*
G01*
X66626000Y-54044000D02*
X66626000Y-53144000D01*
G75*
G02*
X66876000Y-52894000I250000J0D01*
G01*
X67526000Y-52894000D01*
G75*
G02*
X67776000Y-53144000I0J-250000D01*
G01*
X67776000Y-54044000D01*
G75*
G02*
X67526000Y-54294000I-250000J0D01*
G01*
X66876000Y-54294000D01*
G75*
G02*
X66626000Y-54044000I0J250000D01*
G01*
G37*
G04 #@! TD.AperFunction*
D10*
X69215000Y-43053000D03*
X71755000Y-43053000D03*
X74295000Y-43053000D03*
X76835000Y-43053000D03*
X79375000Y-43053000D03*
X81915000Y-43053000D03*
X84455000Y-43053000D03*
G04 #@! TA.AperFunction,SMDPad,CuDef*
G36*
G01*
X76422000Y-54991000D02*
X75660000Y-54991000D01*
G75*
G02*
X75279000Y-54610000I0J381000D01*
G01*
X75279000Y-53086000D01*
G75*
G02*
X75660000Y-52705000I381000J0D01*
G01*
X76422000Y-52705000D01*
G75*
G02*
X76803000Y-53086000I0J-381000D01*
G01*
X76803000Y-54610000D01*
G75*
G02*
X76422000Y-54991000I-381000J0D01*
G01*
G37*
G04 #@! TD.AperFunction*
G04 #@! TA.AperFunction,SMDPad,CuDef*
G36*
G01*
X74422000Y-54991000D02*
X73660000Y-54991000D01*
G75*
G02*
X73279000Y-54610000I0J381000D01*
G01*
X73279000Y-53086000D01*
G75*
G02*
X73660000Y-52705000I381000J0D01*
G01*
X74422000Y-52705000D01*
G75*
G02*
X74803000Y-53086000I0J-381000D01*
G01*
X74803000Y-54610000D01*
G75*
G02*
X74422000Y-54991000I-381000J0D01*
G01*
G37*
G04 #@! TD.AperFunction*
G04 #@! TA.AperFunction,SMDPad,CuDef*
G36*
G01*
X60701500Y-54044000D02*
X60701500Y-53144000D01*
G75*
G02*
X60951500Y-52894000I250000J0D01*
G01*
X61476500Y-52894000D01*
G75*
G02*
X61726500Y-53144000I0J-250000D01*
G01*
X61726500Y-54044000D01*
G75*
G02*
X61476500Y-54294000I-250000J0D01*
G01*
X60951500Y-54294000D01*
G75*
G02*
X60701500Y-54044000I0J250000D01*
G01*
G37*
G04 #@! TD.AperFunction*
G04 #@! TA.AperFunction,SMDPad,CuDef*
G36*
G01*
X62526500Y-54044000D02*
X62526500Y-53144000D01*
G75*
G02*
X62776500Y-52894000I250000J0D01*
G01*
X63301500Y-52894000D01*
G75*
G02*
X63551500Y-53144000I0J-250000D01*
G01*
X63551500Y-54044000D01*
G75*
G02*
X63301500Y-54294000I-250000J0D01*
G01*
X62776500Y-54294000D01*
G75*
G02*
X62526500Y-54044000I0J250000D01*
G01*
G37*
G04 #@! TD.AperFunction*
D11*
X71907000Y-50955000D03*
D12*
X78207000Y-48655000D03*
D11*
X71907000Y-48655000D03*
X71907000Y-46355000D03*
G04 #@! TA.AperFunction,SMDPad,CuDef*
G36*
G01*
X84709000Y-54991000D02*
X83947000Y-54991000D01*
G75*
G02*
X83566000Y-54610000I0J381000D01*
G01*
X83566000Y-53086000D01*
G75*
G02*
X83947000Y-52705000I381000J0D01*
G01*
X84709000Y-52705000D01*
G75*
G02*
X85090000Y-53086000I0J-381000D01*
G01*
X85090000Y-54610000D01*
G75*
G02*
X84709000Y-54991000I-381000J0D01*
G01*
G37*
G04 #@! TD.AperFunction*
G04 #@! TA.AperFunction,SMDPad,CuDef*
G36*
G01*
X82709000Y-54991000D02*
X81947000Y-54991000D01*
G75*
G02*
X81566000Y-54610000I0J381000D01*
G01*
X81566000Y-53086000D01*
G75*
G02*
X81947000Y-52705000I381000J0D01*
G01*
X82709000Y-52705000D01*
G75*
G02*
X83090000Y-53086000I0J-381000D01*
G01*
X83090000Y-54610000D01*
G75*
G02*
X82709000Y-54991000I-381000J0D01*
G01*
G37*
G04 #@! TD.AperFunction*
G04 #@! TA.AperFunction,SMDPad,CuDef*
G36*
G01*
X70046000Y-48200000D02*
X69096000Y-48200000D01*
G75*
G02*
X68846000Y-47950000I0J250000D01*
G01*
X68846000Y-47450000D01*
G75*
G02*
X69096000Y-47200000I250000J0D01*
G01*
X70046000Y-47200000D01*
G75*
G02*
X70296000Y-47450000I0J-250000D01*
G01*
X70296000Y-47950000D01*
G75*
G02*
X70046000Y-48200000I-250000J0D01*
G01*
G37*
G04 #@! TD.AperFunction*
G04 #@! TA.AperFunction,SMDPad,CuDef*
G36*
G01*
X70046000Y-46300000D02*
X69096000Y-46300000D01*
G75*
G02*
X68846000Y-46050000I0J250000D01*
G01*
X68846000Y-45550000D01*
G75*
G02*
X69096000Y-45300000I250000J0D01*
G01*
X70046000Y-45300000D01*
G75*
G02*
X70296000Y-45550000I0J-250000D01*
G01*
X70296000Y-46050000D01*
G75*
G02*
X70046000Y-46300000I-250000J0D01*
G01*
G37*
G04 #@! TD.AperFunction*
G04 #@! TA.AperFunction,SMDPad,CuDef*
G36*
G01*
X69096000Y-48917000D02*
X70046000Y-48917000D01*
G75*
G02*
X70296000Y-49167000I0J-250000D01*
G01*
X70296000Y-49667000D01*
G75*
G02*
X70046000Y-49917000I-250000J0D01*
G01*
X69096000Y-49917000D01*
G75*
G02*
X68846000Y-49667000I0J250000D01*
G01*
X68846000Y-49167000D01*
G75*
G02*
X69096000Y-48917000I250000J0D01*
G01*
G37*
G04 #@! TD.AperFunction*
G04 #@! TA.AperFunction,SMDPad,CuDef*
G36*
G01*
X69096000Y-50817000D02*
X70046000Y-50817000D01*
G75*
G02*
X70296000Y-51067000I0J-250000D01*
G01*
X70296000Y-51567000D01*
G75*
G02*
X70046000Y-51817000I-250000J0D01*
G01*
X69096000Y-51817000D01*
G75*
G02*
X68846000Y-51567000I0J250000D01*
G01*
X68846000Y-51067000D01*
G75*
G02*
X69096000Y-50817000I250000J0D01*
G01*
G37*
G04 #@! TD.AperFunction*
D13*
X79375000Y-40767000D03*
X69571000Y-45800000D03*
X71755000Y-40767000D03*
X61214000Y-53594000D03*
X78207000Y-48655000D03*
X71524500Y-32766000D03*
X78763500Y-32766000D03*
X67500000Y-32766000D03*
X73075000Y-35834000D03*
D14*
X71907000Y-46355000D02*
X71907000Y-45999000D01*
X79248000Y-46101000D02*
X72161000Y-46101000D01*
X71120000Y-46355000D02*
X71907000Y-46355000D01*
X76041000Y-53721000D02*
X76835000Y-53721000D01*
X76835000Y-53721000D02*
X79756000Y-50800000D01*
X79756000Y-50800000D02*
X79756000Y-46609000D01*
X71907000Y-45999000D02*
X69215000Y-43307000D01*
X69571000Y-47700000D02*
X69775000Y-47700000D01*
X69775000Y-47700000D02*
X71120000Y-46355000D01*
X79756000Y-46609000D02*
X79248000Y-46101000D01*
X69215000Y-43307000D02*
X69215000Y-43053000D01*
X72161000Y-46101000D02*
X71907000Y-46355000D01*
X69571000Y-51317000D02*
X71545000Y-51317000D01*
X71755000Y-40767000D02*
X71755000Y-43053000D01*
X79375000Y-43053000D02*
X79375000Y-40767000D01*
X71545000Y-51317000D02*
X71907000Y-50955000D01*
X67151000Y-53594000D02*
X67294000Y-53594000D01*
X68396000Y-46975000D02*
X68396000Y-50142000D01*
X74041000Y-53089000D02*
X71907000Y-50955000D01*
X74041000Y-53721000D02*
X74041000Y-53089000D01*
X69571000Y-45800000D02*
X68396000Y-46975000D01*
X68396000Y-50142000D02*
X69571000Y-51317000D01*
X67294000Y-53594000D02*
X69571000Y-51317000D01*
X71907000Y-48655000D02*
X78207000Y-48655000D01*
X70090000Y-49417000D02*
X70852000Y-48655000D01*
X70852000Y-48655000D02*
X71907000Y-48655000D01*
X69571000Y-49417000D02*
X70090000Y-49417000D01*
X71524500Y-32975000D02*
X71733500Y-32766000D01*
X73279000Y-32766000D02*
X75057000Y-34544000D01*
X71733500Y-32766000D02*
X73279000Y-32766000D01*
X75057000Y-34544000D02*
X75057000Y-37592000D01*
X75057000Y-37592000D02*
X74295000Y-38354000D01*
X74295000Y-38354000D02*
X74295000Y-43053000D01*
X76835000Y-43053000D02*
X76835000Y-40767000D01*
X78763500Y-32766000D02*
X76835000Y-34694500D01*
X76835000Y-34694500D02*
X76835000Y-40640000D01*
X82328000Y-53848000D02*
X81915000Y-53435000D01*
X81915000Y-53435000D02*
X81915000Y-43053000D01*
X84455000Y-53721000D02*
X84455000Y-43053000D01*
X84328000Y-53848000D02*
X84455000Y-53721000D01*
X65151000Y-53594000D02*
X63039000Y-53594000D01*
X67818000Y-32766000D02*
X68072000Y-32766000D01*
X68072000Y-32766000D02*
X71140000Y-35834000D01*
X71140000Y-35834000D02*
X73075000Y-35834000D01*
M02*
