G04 #@! TF.GenerationSoftware,KiCad,Pcbnew,6.0.5+dfsg-1~bpo11+1*
G04 #@! TF.ProjectId,esp8266_pzem16_ac,65737038-3236-4365-9f70-7a656d31365f,rev?*
G04 #@! TF.SameCoordinates,Original*
G04 #@! TF.FileFunction,Soldermask,Top*
G04 #@! TF.FilePolarity,Negative*
%FSLAX46Y46*%
G04 Gerber Fmt 4.6, Leading zero omitted, Abs format (unit mm)*
%MOMM*%
%LPD*%
G01*
G04 APERTURE LIST*
%ADD10R,2.286000X1.524000*%
%ADD11O,1.750000X1.200000*%
%ADD12C,2.700000*%
%ADD13R,2.000000X1.500000*%
%ADD14R,2.000000X3.800000*%
%ADD15R,1.000000X2.500000*%
%ADD16R,1.800000X1.000000*%
G04 APERTURE END LIST*
D10*
X116159000Y-57023000D03*
X116159000Y-59563000D03*
X116159000Y-62103000D03*
X116159000Y-64643000D03*
X116159000Y-67183000D03*
X116159000Y-69723000D03*
X116159000Y-72263000D03*
G36*
G01*
X98801500Y-58616000D02*
X98801500Y-57716000D01*
G75*
G02*
X99051500Y-57466000I250000J0D01*
G01*
X99576500Y-57466000D01*
G75*
G02*
X99826500Y-57716000I0J-250000D01*
G01*
X99826500Y-58616000D01*
G75*
G02*
X99576500Y-58866000I-250000J0D01*
G01*
X99051500Y-58866000D01*
G75*
G02*
X98801500Y-58616000I0J250000D01*
G01*
G37*
G36*
G01*
X100626500Y-58616000D02*
X100626500Y-57716000D01*
G75*
G02*
X100876500Y-57466000I250000J0D01*
G01*
X101401500Y-57466000D01*
G75*
G02*
X101651500Y-57716000I0J-250000D01*
G01*
X101651500Y-58616000D01*
G75*
G02*
X101401500Y-58866000I-250000J0D01*
G01*
X100876500Y-58866000D01*
G75*
G02*
X100626500Y-58616000I0J250000D01*
G01*
G37*
G36*
G01*
X94389000Y-78417000D02*
X94389000Y-79317000D01*
G75*
G02*
X94139000Y-79567000I-250000J0D01*
G01*
X93614000Y-79567000D01*
G75*
G02*
X93364000Y-79317000I0J250000D01*
G01*
X93364000Y-78417000D01*
G75*
G02*
X93614000Y-78167000I250000J0D01*
G01*
X94139000Y-78167000D01*
G75*
G02*
X94389000Y-78417000I0J-250000D01*
G01*
G37*
G36*
G01*
X92564000Y-78417000D02*
X92564000Y-79317000D01*
G75*
G02*
X92314000Y-79567000I-250000J0D01*
G01*
X91789000Y-79567000D01*
G75*
G02*
X91539000Y-79317000I0J250000D01*
G01*
X91539000Y-78417000D01*
G75*
G02*
X91789000Y-78167000I250000J0D01*
G01*
X92314000Y-78167000D01*
G75*
G02*
X92564000Y-78417000I0J-250000D01*
G01*
G37*
G36*
G01*
X122926000Y-61115500D02*
X121676000Y-61115500D01*
G75*
G02*
X121426000Y-60865500I0J250000D01*
G01*
X121426000Y-60165500D01*
G75*
G02*
X121676000Y-59915500I250000J0D01*
G01*
X122926000Y-59915500D01*
G75*
G02*
X123176000Y-60165500I0J-250000D01*
G01*
X123176000Y-60865500D01*
G75*
G02*
X122926000Y-61115500I-250000J0D01*
G01*
G37*
D11*
X122301000Y-58515500D03*
G36*
G01*
X92912500Y-58616000D02*
X92912500Y-57716000D01*
G75*
G02*
X93162500Y-57466000I250000J0D01*
G01*
X93687500Y-57466000D01*
G75*
G02*
X93937500Y-57716000I0J-250000D01*
G01*
X93937500Y-58616000D01*
G75*
G02*
X93687500Y-58866000I-250000J0D01*
G01*
X93162500Y-58866000D01*
G75*
G02*
X92912500Y-58616000I0J250000D01*
G01*
G37*
G36*
G01*
X94737500Y-58616000D02*
X94737500Y-57716000D01*
G75*
G02*
X94987500Y-57466000I250000J0D01*
G01*
X95512500Y-57466000D01*
G75*
G02*
X95762500Y-57716000I0J-250000D01*
G01*
X95762500Y-58616000D01*
G75*
G02*
X95512500Y-58866000I-250000J0D01*
G01*
X94987500Y-58866000D01*
G75*
G02*
X94737500Y-58616000I0J250000D01*
G01*
G37*
D12*
X55626000Y-73152000D03*
G36*
G01*
X115288000Y-75380000D02*
X115288000Y-74480000D01*
G75*
G02*
X115538000Y-74230000I250000J0D01*
G01*
X116063000Y-74230000D01*
G75*
G02*
X116313000Y-74480000I0J-250000D01*
G01*
X116313000Y-75380000D01*
G75*
G02*
X116063000Y-75630000I-250000J0D01*
G01*
X115538000Y-75630000D01*
G75*
G02*
X115288000Y-75380000I0J250000D01*
G01*
G37*
G36*
G01*
X117113000Y-75380000D02*
X117113000Y-74480000D01*
G75*
G02*
X117363000Y-74230000I250000J0D01*
G01*
X117888000Y-74230000D01*
G75*
G02*
X118138000Y-74480000I0J-250000D01*
G01*
X118138000Y-75380000D01*
G75*
G02*
X117888000Y-75630000I-250000J0D01*
G01*
X117363000Y-75630000D01*
G75*
G02*
X117113000Y-75380000I0J250000D01*
G01*
G37*
X55626000Y-83058000D03*
G36*
G01*
X86816500Y-58616000D02*
X86816500Y-57716000D01*
G75*
G02*
X87066500Y-57466000I250000J0D01*
G01*
X87591500Y-57466000D01*
G75*
G02*
X87841500Y-57716000I0J-250000D01*
G01*
X87841500Y-58616000D01*
G75*
G02*
X87591500Y-58866000I-250000J0D01*
G01*
X87066500Y-58866000D01*
G75*
G02*
X86816500Y-58616000I0J250000D01*
G01*
G37*
G36*
G01*
X88641500Y-58616000D02*
X88641500Y-57716000D01*
G75*
G02*
X88891500Y-57466000I250000J0D01*
G01*
X89416500Y-57466000D01*
G75*
G02*
X89666500Y-57716000I0J-250000D01*
G01*
X89666500Y-58616000D01*
G75*
G02*
X89416500Y-58866000I-250000J0D01*
G01*
X88891500Y-58866000D01*
G75*
G02*
X88641500Y-58616000I0J250000D01*
G01*
G37*
X64262000Y-88011000D03*
D13*
X112751000Y-79897000D03*
X112751000Y-77597000D03*
D14*
X106451000Y-77597000D03*
D13*
X112751000Y-75297000D03*
G36*
G01*
X122926000Y-69751500D02*
X121676000Y-69751500D01*
G75*
G02*
X121426000Y-69501500I0J250000D01*
G01*
X121426000Y-68801500D01*
G75*
G02*
X121676000Y-68551500I250000J0D01*
G01*
X122926000Y-68551500D01*
G75*
G02*
X123176000Y-68801500I0J-250000D01*
G01*
X123176000Y-69501500D01*
G75*
G02*
X122926000Y-69751500I-250000J0D01*
G01*
G37*
D11*
X122301000Y-67151500D03*
D15*
X87940000Y-76180000D03*
X89940000Y-76180000D03*
X91940000Y-76180000D03*
X93940000Y-76180000D03*
X95940000Y-76180000D03*
X97940000Y-76180000D03*
X99940000Y-76180000D03*
X101940000Y-76180000D03*
D16*
X103440000Y-73580000D03*
X103440000Y-71580000D03*
X103440000Y-69580000D03*
X103440000Y-67580000D03*
X103440000Y-65580000D03*
X103440000Y-63580000D03*
D15*
X101940000Y-60980000D03*
X99940000Y-60980000D03*
X97940000Y-60980000D03*
X95940000Y-60980000D03*
X93940000Y-60980000D03*
X91940000Y-60980000D03*
X89940000Y-60980000D03*
X87940000Y-60980000D03*
G36*
G01*
X122926000Y-78768500D02*
X121676000Y-78768500D01*
G75*
G02*
X121426000Y-78518500I0J250000D01*
G01*
X121426000Y-77818500D01*
G75*
G02*
X121676000Y-77568500I250000J0D01*
G01*
X122926000Y-77568500D01*
G75*
G02*
X123176000Y-77818500I0J-250000D01*
G01*
X123176000Y-78518500D01*
G75*
G02*
X122926000Y-78768500I-250000J0D01*
G01*
G37*
D11*
X122301000Y-76168500D03*
G36*
G01*
X115263000Y-78199000D02*
X115263000Y-77249000D01*
G75*
G02*
X115513000Y-76999000I250000J0D01*
G01*
X116013000Y-76999000D01*
G75*
G02*
X116263000Y-77249000I0J-250000D01*
G01*
X116263000Y-78199000D01*
G75*
G02*
X116013000Y-78449000I-250000J0D01*
G01*
X115513000Y-78449000D01*
G75*
G02*
X115263000Y-78199000I0J250000D01*
G01*
G37*
G36*
G01*
X117163000Y-78199000D02*
X117163000Y-77249000D01*
G75*
G02*
X117413000Y-76999000I250000J0D01*
G01*
X117913000Y-76999000D01*
G75*
G02*
X118163000Y-77249000I0J-250000D01*
G01*
X118163000Y-78199000D01*
G75*
G02*
X117913000Y-78449000I-250000J0D01*
G01*
X117413000Y-78449000D01*
G75*
G02*
X117163000Y-78199000I0J250000D01*
G01*
G37*
D12*
X66294000Y-72263000D03*
G36*
G01*
X90071000Y-78417000D02*
X90071000Y-79317000D01*
G75*
G02*
X89821000Y-79567000I-250000J0D01*
G01*
X89296000Y-79567000D01*
G75*
G02*
X89046000Y-79317000I0J250000D01*
G01*
X89046000Y-78417000D01*
G75*
G02*
X89296000Y-78167000I250000J0D01*
G01*
X89821000Y-78167000D01*
G75*
G02*
X90071000Y-78417000I0J-250000D01*
G01*
G37*
G36*
G01*
X88246000Y-78417000D02*
X88246000Y-79317000D01*
G75*
G02*
X87996000Y-79567000I-250000J0D01*
G01*
X87471000Y-79567000D01*
G75*
G02*
X87221000Y-79317000I0J250000D01*
G01*
X87221000Y-78417000D01*
G75*
G02*
X87471000Y-78167000I250000J0D01*
G01*
X87996000Y-78167000D01*
G75*
G02*
X88246000Y-78417000I0J-250000D01*
G01*
G37*
G36*
G01*
X115263000Y-80612000D02*
X115263000Y-79662000D01*
G75*
G02*
X115513000Y-79412000I250000J0D01*
G01*
X116013000Y-79412000D01*
G75*
G02*
X116263000Y-79662000I0J-250000D01*
G01*
X116263000Y-80612000D01*
G75*
G02*
X116013000Y-80862000I-250000J0D01*
G01*
X115513000Y-80862000D01*
G75*
G02*
X115263000Y-80612000I0J250000D01*
G01*
G37*
G36*
G01*
X117163000Y-80612000D02*
X117163000Y-79662000D01*
G75*
G02*
X117413000Y-79412000I250000J0D01*
G01*
X117913000Y-79412000D01*
G75*
G02*
X118163000Y-79662000I0J-250000D01*
G01*
X118163000Y-80612000D01*
G75*
G02*
X117913000Y-80862000I-250000J0D01*
G01*
X117413000Y-80862000D01*
G75*
G02*
X117163000Y-80612000I0J250000D01*
G01*
G37*
M02*
