G04 #@! TF.GenerationSoftware,KiCad,Pcbnew,6.0.5+dfsg-1~bpo11+1*
G04 #@! TF.ProjectId,esp8266_pzem16_ac,65737038-3236-4365-9f70-7a656d31365f,rev?*
G04 #@! TF.SameCoordinates,Original*
G04 #@! TF.FileFunction,Soldermask,Top*
G04 #@! TF.FilePolarity,Negative*
%FSLAX46Y46*%
G04 Gerber Fmt 4.6, Leading zero omitted, Abs format (unit mm)*
%MOMM*%
%LPD*%
G01*
G04 APERTURE LIST*
%ADD10R,1.000000X2.500000*%
%ADD11R,1.800000X1.000000*%
G04 APERTURE END LIST*
G36*
G01*
X80363000Y-33597000D02*
X80363000Y-32697000D01*
G75*
G02*
X80613000Y-32447000I250000J0D01*
G01*
X81138000Y-32447000D01*
G75*
G02*
X81388000Y-32697000I0J-250000D01*
G01*
X81388000Y-33597000D01*
G75*
G02*
X81138000Y-33847000I-250000J0D01*
G01*
X80613000Y-33847000D01*
G75*
G02*
X80363000Y-33597000I0J250000D01*
G01*
G37*
G36*
G01*
X82188000Y-33597000D02*
X82188000Y-32697000D01*
G75*
G02*
X82438000Y-32447000I250000J0D01*
G01*
X82963000Y-32447000D01*
G75*
G02*
X83213000Y-32697000I0J-250000D01*
G01*
X83213000Y-33597000D01*
G75*
G02*
X82963000Y-33847000I-250000J0D01*
G01*
X82438000Y-33847000D01*
G75*
G02*
X82188000Y-33597000I0J250000D01*
G01*
G37*
G36*
G01*
X75489500Y-53144000D02*
X75489500Y-54044000D01*
G75*
G02*
X75239500Y-54294000I-250000J0D01*
G01*
X74714500Y-54294000D01*
G75*
G02*
X74464500Y-54044000I0J250000D01*
G01*
X74464500Y-53144000D01*
G75*
G02*
X74714500Y-52894000I250000J0D01*
G01*
X75239500Y-52894000D01*
G75*
G02*
X75489500Y-53144000I0J-250000D01*
G01*
G37*
G36*
G01*
X73664500Y-53144000D02*
X73664500Y-54044000D01*
G75*
G02*
X73414500Y-54294000I-250000J0D01*
G01*
X72889500Y-54294000D01*
G75*
G02*
X72639500Y-54044000I0J250000D01*
G01*
X72639500Y-53144000D01*
G75*
G02*
X72889500Y-52894000I250000J0D01*
G01*
X73414500Y-52894000D01*
G75*
G02*
X73664500Y-53144000I0J-250000D01*
G01*
G37*
G36*
G01*
X76426000Y-33597000D02*
X76426000Y-32697000D01*
G75*
G02*
X76676000Y-32447000I250000J0D01*
G01*
X77201000Y-32447000D01*
G75*
G02*
X77451000Y-32697000I0J-250000D01*
G01*
X77451000Y-33597000D01*
G75*
G02*
X77201000Y-33847000I-250000J0D01*
G01*
X76676000Y-33847000D01*
G75*
G02*
X76426000Y-33597000I0J250000D01*
G01*
G37*
G36*
G01*
X78251000Y-33597000D02*
X78251000Y-32697000D01*
G75*
G02*
X78501000Y-32447000I250000J0D01*
G01*
X79026000Y-32447000D01*
G75*
G02*
X79276000Y-32697000I0J-250000D01*
G01*
X79276000Y-33597000D01*
G75*
G02*
X79026000Y-33847000I-250000J0D01*
G01*
X78501000Y-33847000D01*
G75*
G02*
X78251000Y-33597000I0J250000D01*
G01*
G37*
G36*
G01*
X67568500Y-32570000D02*
X67568500Y-33470000D01*
G75*
G02*
X67318500Y-33720000I-250000J0D01*
G01*
X66793500Y-33720000D01*
G75*
G02*
X66543500Y-33470000I0J250000D01*
G01*
X66543500Y-32570000D01*
G75*
G02*
X66793500Y-32320000I250000J0D01*
G01*
X67318500Y-32320000D01*
G75*
G02*
X67568500Y-32570000I0J-250000D01*
G01*
G37*
G36*
G01*
X65743500Y-32570000D02*
X65743500Y-33470000D01*
G75*
G02*
X65493500Y-33720000I-250000J0D01*
G01*
X64968500Y-33720000D01*
G75*
G02*
X64718500Y-33470000I0J250000D01*
G01*
X64718500Y-32570000D01*
G75*
G02*
X64968500Y-32320000I250000J0D01*
G01*
X65493500Y-32320000D01*
G75*
G02*
X65743500Y-32570000I0J-250000D01*
G01*
G37*
G36*
G01*
X63821000Y-32570000D02*
X63821000Y-33470000D01*
G75*
G02*
X63571000Y-33720000I-250000J0D01*
G01*
X62921000Y-33720000D01*
G75*
G02*
X62671000Y-33470000I0J250000D01*
G01*
X62671000Y-32570000D01*
G75*
G02*
X62921000Y-32320000I250000J0D01*
G01*
X63571000Y-32320000D01*
G75*
G02*
X63821000Y-32570000I0J-250000D01*
G01*
G37*
G36*
G01*
X61771000Y-32570000D02*
X61771000Y-33470000D01*
G75*
G02*
X61521000Y-33720000I-250000J0D01*
G01*
X60871000Y-33720000D01*
G75*
G02*
X60621000Y-33470000I0J250000D01*
G01*
X60621000Y-32570000D01*
G75*
G02*
X60871000Y-32320000I250000J0D01*
G01*
X61521000Y-32320000D01*
G75*
G02*
X61771000Y-32570000I0J-250000D01*
G01*
G37*
G36*
G01*
X68933000Y-33597000D02*
X68933000Y-32697000D01*
G75*
G02*
X69183000Y-32447000I250000J0D01*
G01*
X69708000Y-32447000D01*
G75*
G02*
X69958000Y-32697000I0J-250000D01*
G01*
X69958000Y-33597000D01*
G75*
G02*
X69708000Y-33847000I-250000J0D01*
G01*
X69183000Y-33847000D01*
G75*
G02*
X68933000Y-33597000I0J250000D01*
G01*
G37*
G36*
G01*
X70758000Y-33597000D02*
X70758000Y-32697000D01*
G75*
G02*
X71008000Y-32447000I250000J0D01*
G01*
X71533000Y-32447000D01*
G75*
G02*
X71783000Y-32697000I0J-250000D01*
G01*
X71783000Y-33597000D01*
G75*
G02*
X71533000Y-33847000I-250000J0D01*
G01*
X71008000Y-33847000D01*
G75*
G02*
X70758000Y-33597000I0J250000D01*
G01*
G37*
D10*
X69075000Y-51034000D03*
X71075000Y-51034000D03*
X73075000Y-51034000D03*
X75075000Y-51034000D03*
X77075000Y-51034000D03*
X79075000Y-51034000D03*
X81075000Y-51034000D03*
X83075000Y-51034000D03*
D11*
X84575000Y-48434000D03*
X84575000Y-46434000D03*
X84575000Y-44434000D03*
X84575000Y-42434000D03*
X84575000Y-40434000D03*
X84575000Y-38434000D03*
D10*
X83075000Y-35834000D03*
X81075000Y-35834000D03*
X79075000Y-35834000D03*
X77075000Y-35834000D03*
X75075000Y-35834000D03*
X73075000Y-35834000D03*
X71075000Y-35834000D03*
X69075000Y-35834000D03*
G36*
G01*
X71529000Y-53144000D02*
X71529000Y-54044000D01*
G75*
G02*
X71279000Y-54294000I-250000J0D01*
G01*
X70754000Y-54294000D01*
G75*
G02*
X70504000Y-54044000I0J250000D01*
G01*
X70504000Y-53144000D01*
G75*
G02*
X70754000Y-52894000I250000J0D01*
G01*
X71279000Y-52894000D01*
G75*
G02*
X71529000Y-53144000I0J-250000D01*
G01*
G37*
G36*
G01*
X69704000Y-53144000D02*
X69704000Y-54044000D01*
G75*
G02*
X69454000Y-54294000I-250000J0D01*
G01*
X68929000Y-54294000D01*
G75*
G02*
X68679000Y-54044000I0J250000D01*
G01*
X68679000Y-53144000D01*
G75*
G02*
X68929000Y-52894000I250000J0D01*
G01*
X69454000Y-52894000D01*
G75*
G02*
X69704000Y-53144000I0J-250000D01*
G01*
G37*
M02*
