G04 #@! TF.GenerationSoftware,KiCad,Pcbnew,6.0.5+dfsg-1~bpo11+1*
G04 #@! TF.ProjectId,esp8266_pzem16_ac,65737038-3236-4365-9f70-7a656d31365f,rev?*
G04 #@! TF.SameCoordinates,Original*
G04 #@! TF.FileFunction,Copper,L1,Top*
G04 #@! TF.FilePolarity,Positive*
%FSLAX46Y46*%
G04 Gerber Fmt 4.6, Leading zero omitted, Abs format (unit mm)*
%MOMM*%
%LPD*%
G01*
G04 APERTURE LIST*
G04 #@! TA.AperFunction,SMDPad,CuDef*
%ADD10R,1.000000X2.500000*%
G04 #@! TD*
G04 #@! TA.AperFunction,SMDPad,CuDef*
%ADD11R,1.800000X1.000000*%
G04 #@! TD*
G04 #@! TA.AperFunction,ViaPad*
%ADD12C,0.800000*%
G04 #@! TD*
G04 #@! TA.AperFunction,Conductor*
%ADD13C,0.500000*%
G04 #@! TD*
G04 APERTURE END LIST*
G04 #@! TA.AperFunction,SMDPad,CuDef*
G36*
G01*
X80363000Y-33216000D02*
X80363000Y-32316000D01*
G75*
G02*
X80613000Y-32066000I250000J0D01*
G01*
X81138000Y-32066000D01*
G75*
G02*
X81388000Y-32316000I0J-250000D01*
G01*
X81388000Y-33216000D01*
G75*
G02*
X81138000Y-33466000I-250000J0D01*
G01*
X80613000Y-33466000D01*
G75*
G02*
X80363000Y-33216000I0J250000D01*
G01*
G37*
G04 #@! TD.AperFunction*
G04 #@! TA.AperFunction,SMDPad,CuDef*
G36*
G01*
X82188000Y-33216000D02*
X82188000Y-32316000D01*
G75*
G02*
X82438000Y-32066000I250000J0D01*
G01*
X82963000Y-32066000D01*
G75*
G02*
X83213000Y-32316000I0J-250000D01*
G01*
X83213000Y-33216000D01*
G75*
G02*
X82963000Y-33466000I-250000J0D01*
G01*
X82438000Y-33466000D01*
G75*
G02*
X82188000Y-33216000I0J250000D01*
G01*
G37*
G04 #@! TD.AperFunction*
G04 #@! TA.AperFunction,SMDPad,CuDef*
G36*
G01*
X76228000Y-53144000D02*
X76228000Y-54044000D01*
G75*
G02*
X75978000Y-54294000I-250000J0D01*
G01*
X75453000Y-54294000D01*
G75*
G02*
X75203000Y-54044000I0J250000D01*
G01*
X75203000Y-53144000D01*
G75*
G02*
X75453000Y-52894000I250000J0D01*
G01*
X75978000Y-52894000D01*
G75*
G02*
X76228000Y-53144000I0J-250000D01*
G01*
G37*
G04 #@! TD.AperFunction*
G04 #@! TA.AperFunction,SMDPad,CuDef*
G36*
G01*
X74403000Y-53144000D02*
X74403000Y-54044000D01*
G75*
G02*
X74153000Y-54294000I-250000J0D01*
G01*
X73628000Y-54294000D01*
G75*
G02*
X73378000Y-54044000I0J250000D01*
G01*
X73378000Y-53144000D01*
G75*
G02*
X73628000Y-52894000I250000J0D01*
G01*
X74153000Y-52894000D01*
G75*
G02*
X74403000Y-53144000I0J-250000D01*
G01*
G37*
G04 #@! TD.AperFunction*
G04 #@! TA.AperFunction,SMDPad,CuDef*
G36*
G01*
X76426000Y-33216000D02*
X76426000Y-32316000D01*
G75*
G02*
X76676000Y-32066000I250000J0D01*
G01*
X77201000Y-32066000D01*
G75*
G02*
X77451000Y-32316000I0J-250000D01*
G01*
X77451000Y-33216000D01*
G75*
G02*
X77201000Y-33466000I-250000J0D01*
G01*
X76676000Y-33466000D01*
G75*
G02*
X76426000Y-33216000I0J250000D01*
G01*
G37*
G04 #@! TD.AperFunction*
G04 #@! TA.AperFunction,SMDPad,CuDef*
G36*
G01*
X78251000Y-33216000D02*
X78251000Y-32316000D01*
G75*
G02*
X78501000Y-32066000I250000J0D01*
G01*
X79026000Y-32066000D01*
G75*
G02*
X79276000Y-32316000I0J-250000D01*
G01*
X79276000Y-33216000D01*
G75*
G02*
X79026000Y-33466000I-250000J0D01*
G01*
X78501000Y-33466000D01*
G75*
G02*
X78251000Y-33216000I0J250000D01*
G01*
G37*
G04 #@! TD.AperFunction*
G04 #@! TA.AperFunction,SMDPad,CuDef*
G36*
G01*
X67568500Y-32316000D02*
X67568500Y-33216000D01*
G75*
G02*
X67318500Y-33466000I-250000J0D01*
G01*
X66793500Y-33466000D01*
G75*
G02*
X66543500Y-33216000I0J250000D01*
G01*
X66543500Y-32316000D01*
G75*
G02*
X66793500Y-32066000I250000J0D01*
G01*
X67318500Y-32066000D01*
G75*
G02*
X67568500Y-32316000I0J-250000D01*
G01*
G37*
G04 #@! TD.AperFunction*
G04 #@! TA.AperFunction,SMDPad,CuDef*
G36*
G01*
X65743500Y-32316000D02*
X65743500Y-33216000D01*
G75*
G02*
X65493500Y-33466000I-250000J0D01*
G01*
X64968500Y-33466000D01*
G75*
G02*
X64718500Y-33216000I0J250000D01*
G01*
X64718500Y-32316000D01*
G75*
G02*
X64968500Y-32066000I250000J0D01*
G01*
X65493500Y-32066000D01*
G75*
G02*
X65743500Y-32316000I0J-250000D01*
G01*
G37*
G04 #@! TD.AperFunction*
G04 #@! TA.AperFunction,ComponentPad*
G36*
G01*
X63821000Y-32361000D02*
X63821000Y-33261000D01*
G75*
G02*
X63571000Y-33511000I-250000J0D01*
G01*
X62921000Y-33511000D01*
G75*
G02*
X62671000Y-33261000I0J250000D01*
G01*
X62671000Y-32361000D01*
G75*
G02*
X62921000Y-32111000I250000J0D01*
G01*
X63571000Y-32111000D01*
G75*
G02*
X63821000Y-32361000I0J-250000D01*
G01*
G37*
G04 #@! TD.AperFunction*
G04 #@! TA.AperFunction,ComponentPad*
G36*
G01*
X61771000Y-32361000D02*
X61771000Y-33261000D01*
G75*
G02*
X61521000Y-33511000I-250000J0D01*
G01*
X60871000Y-33511000D01*
G75*
G02*
X60621000Y-33261000I0J250000D01*
G01*
X60621000Y-32361000D01*
G75*
G02*
X60871000Y-32111000I250000J0D01*
G01*
X61521000Y-32111000D01*
G75*
G02*
X61771000Y-32361000I0J-250000D01*
G01*
G37*
G04 #@! TD.AperFunction*
G04 #@! TA.AperFunction,SMDPad,CuDef*
G36*
G01*
X69187000Y-33216000D02*
X69187000Y-32316000D01*
G75*
G02*
X69437000Y-32066000I250000J0D01*
G01*
X69962000Y-32066000D01*
G75*
G02*
X70212000Y-32316000I0J-250000D01*
G01*
X70212000Y-33216000D01*
G75*
G02*
X69962000Y-33466000I-250000J0D01*
G01*
X69437000Y-33466000D01*
G75*
G02*
X69187000Y-33216000I0J250000D01*
G01*
G37*
G04 #@! TD.AperFunction*
G04 #@! TA.AperFunction,SMDPad,CuDef*
G36*
G01*
X71012000Y-33216000D02*
X71012000Y-32316000D01*
G75*
G02*
X71262000Y-32066000I250000J0D01*
G01*
X71787000Y-32066000D01*
G75*
G02*
X72037000Y-32316000I0J-250000D01*
G01*
X72037000Y-33216000D01*
G75*
G02*
X71787000Y-33466000I-250000J0D01*
G01*
X71262000Y-33466000D01*
G75*
G02*
X71012000Y-33216000I0J250000D01*
G01*
G37*
G04 #@! TD.AperFunction*
D10*
X69075000Y-51034000D03*
X71075000Y-51034000D03*
X73075000Y-51034000D03*
X75075000Y-51034000D03*
X77075000Y-51034000D03*
X79075000Y-51034000D03*
X81075000Y-51034000D03*
X83075000Y-51034000D03*
D11*
X84575000Y-48434000D03*
X84575000Y-46434000D03*
X84575000Y-44434000D03*
X84575000Y-42434000D03*
X84575000Y-40434000D03*
X84575000Y-38434000D03*
D10*
X83075000Y-35834000D03*
X81075000Y-35834000D03*
X79075000Y-35834000D03*
X77075000Y-35834000D03*
X75075000Y-35834000D03*
X73075000Y-35834000D03*
X71075000Y-35834000D03*
X69075000Y-35834000D03*
G04 #@! TA.AperFunction,ComponentPad*
G36*
G01*
X64576000Y-54044000D02*
X64576000Y-53144000D01*
G75*
G02*
X64826000Y-52894000I250000J0D01*
G01*
X65476000Y-52894000D01*
G75*
G02*
X65726000Y-53144000I0J-250000D01*
G01*
X65726000Y-54044000D01*
G75*
G02*
X65476000Y-54294000I-250000J0D01*
G01*
X64826000Y-54294000D01*
G75*
G02*
X64576000Y-54044000I0J250000D01*
G01*
G37*
G04 #@! TD.AperFunction*
G04 #@! TA.AperFunction,ComponentPad*
G36*
G01*
X66626000Y-54044000D02*
X66626000Y-53144000D01*
G75*
G02*
X66876000Y-52894000I250000J0D01*
G01*
X67526000Y-52894000D01*
G75*
G02*
X67776000Y-53144000I0J-250000D01*
G01*
X67776000Y-54044000D01*
G75*
G02*
X67526000Y-54294000I-250000J0D01*
G01*
X66876000Y-54294000D01*
G75*
G02*
X66626000Y-54044000I0J250000D01*
G01*
G37*
G04 #@! TD.AperFunction*
G04 #@! TA.AperFunction,SMDPad,CuDef*
G36*
G01*
X71529000Y-53144000D02*
X71529000Y-54044000D01*
G75*
G02*
X71279000Y-54294000I-250000J0D01*
G01*
X70754000Y-54294000D01*
G75*
G02*
X70504000Y-54044000I0J250000D01*
G01*
X70504000Y-53144000D01*
G75*
G02*
X70754000Y-52894000I250000J0D01*
G01*
X71279000Y-52894000D01*
G75*
G02*
X71529000Y-53144000I0J-250000D01*
G01*
G37*
G04 #@! TD.AperFunction*
G04 #@! TA.AperFunction,SMDPad,CuDef*
G36*
G01*
X69704000Y-53144000D02*
X69704000Y-54044000D01*
G75*
G02*
X69454000Y-54294000I-250000J0D01*
G01*
X68929000Y-54294000D01*
G75*
G02*
X68679000Y-54044000I0J250000D01*
G01*
X68679000Y-53144000D01*
G75*
G02*
X68929000Y-52894000I250000J0D01*
G01*
X69454000Y-52894000D01*
G75*
G02*
X69704000Y-53144000I0J-250000D01*
G01*
G37*
G04 #@! TD.AperFunction*
D12*
X79375000Y-40767000D03*
X69571000Y-45800000D03*
X71755000Y-40767000D03*
X61214000Y-53594000D03*
X78207000Y-48655000D03*
X71524500Y-32766000D03*
X78763500Y-32766000D03*
X67500000Y-32766000D03*
X73075000Y-35834000D03*
D13*
X71755000Y-43434000D02*
X71755000Y-40767000D01*
X70231000Y-40640000D02*
X68025000Y-38434000D01*
X82700500Y-32766000D02*
X82931000Y-32996500D01*
X67437000Y-34544000D02*
X62484000Y-34544000D01*
X69571000Y-45618000D02*
X71755000Y-43434000D01*
X82931000Y-32996500D02*
X82931000Y-35690000D01*
X62484000Y-34544000D02*
X61196000Y-33256000D01*
X71755000Y-40640000D02*
X70231000Y-40640000D01*
X69571000Y-45800000D02*
X69571000Y-45618000D01*
X73025000Y-39370000D02*
X71755000Y-40640000D01*
X77978000Y-39370000D02*
X73025000Y-39370000D01*
X83075000Y-37067000D02*
X83075000Y-35834000D01*
X68025000Y-35132000D02*
X67437000Y-34544000D01*
X61196000Y-33256000D02*
X61196000Y-33020000D01*
X82931000Y-35690000D02*
X83075000Y-35834000D01*
X68025000Y-38434000D02*
X68025000Y-35132000D01*
X79375000Y-40767000D02*
X83075000Y-37067000D01*
X79375000Y-40767000D02*
X77978000Y-39370000D01*
X83075000Y-49801000D02*
X81915000Y-48641000D01*
X70104000Y-54864000D02*
X71016500Y-53951500D01*
X81901000Y-48655000D02*
X78207000Y-48655000D01*
X74445500Y-54864000D02*
X75715500Y-53594000D01*
X83075000Y-51784000D02*
X83075000Y-51034000D01*
X61214000Y-53594000D02*
X62484000Y-54864000D01*
X81265000Y-53594000D02*
X83075000Y-51784000D01*
X83075000Y-51034000D02*
X83075000Y-49801000D01*
X71016500Y-53951500D02*
X71016500Y-53594000D01*
X71016500Y-53594000D02*
X72286500Y-54864000D01*
X75715500Y-53594000D02*
X81265000Y-53594000D01*
X62484000Y-54864000D02*
X70104000Y-54864000D01*
X81915000Y-48641000D02*
X81901000Y-48655000D01*
X72286500Y-54864000D02*
X74445500Y-54864000D01*
X78763500Y-32766000D02*
X78740000Y-32789500D01*
X78740000Y-32789500D02*
X78740000Y-33147000D01*
X73890500Y-53594000D02*
X73075000Y-52778500D01*
X73075000Y-52778500D02*
X73075000Y-51034000D01*
X69075000Y-53477500D02*
X69191500Y-53594000D01*
X69075000Y-51034000D02*
X69075000Y-53477500D01*
X80875500Y-33147000D02*
X80875500Y-32766000D01*
X80875500Y-32766000D02*
X81075000Y-32965500D01*
X81075000Y-32965500D02*
X81075000Y-35834000D01*
X69075000Y-35834000D02*
X69075000Y-33517500D01*
X69075000Y-33517500D02*
X69445500Y-33147000D01*
X76684500Y-33020000D02*
X73279000Y-33020000D01*
X76938500Y-33147000D02*
X76938500Y-32766000D01*
X71075000Y-35224000D02*
X71075000Y-35834000D01*
X76938500Y-32766000D02*
X76684500Y-33020000D01*
X73279000Y-33020000D02*
X71075000Y-35224000D01*
X63246000Y-32811000D02*
X65186000Y-32811000D01*
X65186000Y-32811000D02*
X65231000Y-32766000D01*
X63246000Y-33020000D02*
X63246000Y-32811000D01*
X65231000Y-32766000D02*
X65231000Y-33020000D01*
X67500000Y-32766000D02*
X67056000Y-32766000D01*
M02*
